<svg xmlns="http://www.w3.org/2000/svg" viewBox="0 0 479 490.53"><defs><style>.cls-1{fill:#f9b041;}.cls-2{fill:#4f305c;}.cls-3{fill:#ddad9a;}.cls-4{fill:#6a4780;}.cls-5{fill:#5c3b6e;}.cls-6{fill:#477bbe;}.cls-7{fill:#4795d1;}.cls-8{fill:#e4bfad;}.cls-9{fill:#e5201f;}.cls-10{fill:#fff;}.cls-11{fill:#e84339;}</style></defs><g id="Capa_2" data-name="Capa 2"><g id="Capa_1-2" data-name="Capa 1"><path class="cls-1" d="M206.18,408a47.14,47.14,0,1,0,66.66,0A47.15,47.15,0,0,0,206.18,408Z"/><path class="cls-1" d="M239.51,295.9A144.4,144.4,0,0,0,136.7,338.49a27.59,27.59,0,1,0,39,39,90.17,90.17,0,0,1,127.58,0,27.59,27.59,0,0,0,39-39A144.4,144.4,0,0,0,239.51,295.9Z"/><path class="cls-1" d="M239.51,205.06a234.67,234.67,0,0,0-167.06,69.2,27.59,27.59,0,0,0,39,39,181.05,181.05,0,0,1,256.07,0,27.58,27.58,0,0,0,39-39A234.63,234.63,0,0,0,239.51,205.06Z"/><path class="cls-1" d="M470.94,209.88a327.27,327.27,0,0,0-462.86,0,27.59,27.59,0,1,0,39,39,272.06,272.06,0,0,1,384.82,0,27.59,27.59,0,0,0,39-39Z"/><path class="cls-2" d="M118.43,266.58c.9,5.83-4.92,9.33-4.92,9.33l-14.83,2.63-5.85-5.61s-8-.44-7.33-8.65a5.7,5.7,0,0,0,6-.52c2.21-1.43,5.37-6.87,12.37-8.4a7.73,7.73,0,0,1,8.85,4.14S117.5,260.58,118.43,266.58Z"/><path class="cls-3" d="M87.6,307.11l-4.37,8.16-9.42-.22S80,342.29,89.1,330.89c5.66-7.05,9.58-22.11,9.58-22.11l-6.87-2Z"/><path class="cls-4" d="M112.62,289.68S97.13,286.16,87,306.78l17.82,9.05C110.05,307.42,122.7,291.4,112.62,289.68Z"/><polygon class="cls-2" points="82.85 300.04 72.05 298.31 76.65 320.05 85.76 321.84 82.85 300.04"/><polygon class="cls-4" points="84.96 298.87 86.96 320.63 85.76 321.84 82.85 300.04 84.96 298.87"/><polygon class="cls-4" points="72.05 298.31 73.82 297.07 84.96 298.87 82.85 300.04 72.05 298.31"/><path class="cls-5" d="M78.48,303.33a.85.85,0,1,1-1-.92C78,302.33,78.39,302.75,78.48,303.33Z"/><path class="cls-2" d="M100.64,479.22s-3.62,4-6.36,5.22-8.07.21-8.07,6.09h23.13V479.22Z"/><path class="cls-6" d="M94,357.5s-.5,38.85,0,55.42,4.09,58,4.09,58h13.66V414.79l5.45-57.29Z"/><path class="cls-7" d="M109,360s3.41,44.76,4.73,51.7,12.1,59.24,12.1,59.24h12.32l-5.72-58.46,1.24-52.11S126.45,354,109,360Z"/><path class="cls-2" d="M110.87,287.5s-8.19,2.45-12.26,5.37c-8,5.75-12.29,64.31-11.06,71.14s46,4.45,50.63,2.4c8.28-3.66-1.12-67.6-3.14-72.19-1.87-4.26-17.19-8.54-17.19-8.54Z"/><path class="cls-8" d="M109.86,285.68c-15.64,7.26-17.14-10-17-12.75a31.92,31.92,0,0,0,11.54-3.65l5.16,4.05s-1.11-3.84,1.54-4.82,5.58,3.77,2.44,7.4l5,11.26a3.41,3.41,0,0,1-1.83,4.55h0a3.43,3.43,0,0,1-4.29-1.5Z"/><path class="cls-8" d="M101.82,470.93h5.67a0,0,0,0,1,0,0v9.54a1.58,1.58,0,0,1-1.58,1.58H103.4a1.58,1.58,0,0,1-1.58-1.58v-9.54A0,0,0,0,1,101.82,470.93Z"/><path class="cls-2" d="M127.44,479.22s-3.62,4-6.36,5.22-8.06.21-8.06,6.09h23.12V479.22Z"/><path class="cls-8" d="M128.62,470.93h5.67a0,0,0,0,1,0,0v9.54a1.58,1.58,0,0,1-1.58,1.58H130.2a1.58,1.58,0,0,1-1.58-1.58v-9.54A0,0,0,0,1,128.62,470.93Z"/><path class="cls-8" d="M126.6,313.55s2.11,10.54,1.2,16.06c-.69,4.2-39-12.91-39-12.91a6,6,0,0,0-.82-3.53c-2.2-3.55-2.72.76-2.72.76s-1.09-3.47-3.1-4.11c-1.26-.4-3.54.81-3.4,4.22s4.49,5.28,8.59,5.93c0,0,19.8,16,31.46,20.39,19.68,7.38,26.88,1.68,24.19-26.21Z"/><path class="cls-4" d="M130,290.25s13.77,2.4,15.11,25.36L125.19,317C123.6,307.21,120.05,287.92,130,290.25Z"/><path class="cls-8" d="M73.81,306s2.76,1.34,2.84,5.88-1.72,4.53-2.84,3.19C71.54,312.92,70.84,305.25,73.81,306Z"/><path class="cls-9" d="M372.84,263.49s-17-11.35-29.64,1.75c-9.73,10.05-5.8,22.86-15.46,26.74s-17.05,12.28-13.91,22.63,17,18.64,31.53,8.9,13.23-23.65,13.23-23.65,12.06-2.95,13.66-14.18c0,0,7.2-5.75,7.09-13.92S372.84,263.49,372.84,263.49Z"/><path class="cls-3" d="M344.25,295.7c-8.63,1.95,4.22,28.1,11.35,34.49,5.62,5.05,23.29-20.85,25.13-21.59s-17.61,9-17.61,9S361.13,291.89,344.25,295.7Z"/><path class="cls-2" d="M382.73,477.78s4.32,3.3,7.23,3.94,8-1.31,9.06,4.46l-22.71,4.35-2.12-11.11Z"/><path class="cls-8" d="M377,470.3h2.51a1.58,1.58,0,0,1,1.58,1.58v9.54a0,0,0,0,1,0,0h-5.67a0,0,0,0,1,0,0v-9.54A1.58,1.58,0,0,1,377,470.3Z" transform="translate(839.02 872.41) rotate(169.2)"/><path class="cls-2" d="M341.89,344.41s-4.67,11.55,0,26.93,31,100.52,31,100.52l8.83-1.61s-15.44-88.43-18.43-104.14c-3.59-18.81-8-25-8-25Z"/><path class="cls-4" d="M334,344.41s-4.67,11.55,0,26.93,22.52,99.59,22.52,99.59h9.18s-2.35-89.48-4-105.38a203.73,203.73,0,0,0-4-25.31Z"/><path class="cls-2" d="M365,479.22s3.62,4,6.36,5.22,8.06.21,8.06,6.09H356.3V479.22Z"/><path class="cls-8" d="M359.73,470.93h2.51a1.58,1.58,0,0,1,1.58,1.58v9.54a0,0,0,0,1,0,0h-5.67a0,0,0,0,1,0,0v-9.54A1.58,1.58,0,0,1,359.73,470.93Z" transform="translate(721.97 952.99) rotate(180)"/><path class="cls-10" d="M348.75,290.54l6.13,3.06s12.19,12.55,3.46,19a163.44,163.44,0,0,0,1.07,25.31s1.6,6.75-13.07,8.2c-15.23,1.51-15.6-.33-16.28-3.36S326.9,291,348.75,290.54Z"/><polygon class="cls-4" points="372.94 317.7 377.58 297.24 380.57 298.03 375.6 318.15 372.94 317.7"/><path class="cls-8" d="M357.4,289.06c15.64,7.26,17.13-10,17-12.75,0,0-1.89-.69-3.45-4.55-4.26,4.68-13.26,4.95-13.26,4.95s1.12-3.84-1.53-4.82-5.59,3.77-2.45,7.4l-5,11.25a3.43,3.43,0,0,0,1.83,4.56h0a3.44,3.44,0,0,0,4.3-1.5Z"/><path class="cls-8" d="M344.09,297.56a4.85,4.85,0,0,1,3,5.77c-1.51,5.78-3.92,15.78-3.44,18.7.53,3.19,29.64-9.8,29.64-9.8a4.57,4.57,0,0,1,.63-2.69c1.67-2.69,2.06.58,2.06.58s.83-2.64,2.36-3.12c1-.3,2.68.61,2.58,3.2s-3.41,4-6.53,4.51c0,0-16.25,13-25.24,15.89-17.94,5.86-16.72-7.43-11.33-30.18.62-2.61,3.73-3.79,6.25-2.86Z"/><path class="cls-2" d="M228.64,21.9s-10.87-10.85-3.81-18.74C232.41-5.32,244.65,6,244.65,6s5.23-2.39,7.89,3.47c2,4.35-.46,12-4.9,13S228.64,21.9,228.64,21.9Z"/><path class="cls-2" d="M202.69,199.35s-3.62,4.06-6.36,5.23-8.06.21-8.06,6.08h23.12V199.35Z"/><path class="cls-8" d="M203.87,191.07h5.67a0,0,0,0,1,0,0v9.54a1.58,1.58,0,0,1-1.58,1.58h-2.51a1.58,1.58,0,0,1-1.58-1.58v-9.54A0,0,0,0,1,203.87,191.07Z"/><path class="cls-2" d="M276.31,199.35s3.62,4.06,6.36,5.23,8.06.21,8.06,6.08H267.61V199.35Z"/><path class="cls-8" d="M271,191.07h2.51a1.58,1.58,0,0,1,1.58,1.58v9.54a0,0,0,0,1,0,0h-5.67a0,0,0,0,1,0,0v-9.54A1.58,1.58,0,0,1,271,191.07Z" transform="translate(544.58 393.26) rotate(-180)"/><path class="cls-4" d="M225.49,105.25S196,116.11,196,130.89c0,16.59,4.08,64.84,4.08,64.84h13.66s.9-57.22,1.24-59.35a386.49,386.49,0,0,0,31.71-24Z"/><path class="cls-4" d="M253.5,105.25S283,116.11,283,130.89c0,16.59-4.08,64.84-4.08,64.84H265.26s-.89-57.22-1.23-59.35a385.78,385.78,0,0,1-31.72-24Z"/><path class="cls-9" d="M262,31.68c-4.74-3.42-22.43-3.92-22.43-3.92s-17.68.5-22.42,3.92c-9.32,6.7-14.33,66.83-12.89,74.79.84,4.69,19.21,5.65,35.31,5.17,16.11.48,34.48-.48,35.32-5.17C276.36,98.51,271.35,38.38,262,31.68Z"/><path class="cls-10" d="M247.2,28.25c-4.21-.4-7.6-.49-7.6-.49s-3.35.09-7.53.48l-.3.1v83.41c2.62,0,5.25,0,7.83-.11,2.51.08,5.06.11,7.6.11Z"/><rect class="cls-7" x="203.83" y="69.19" width="71.33" height="41.31"/><path class="cls-6" d="M203.83,110.5h71.33a0,0,0,0,1,0,0v1.85a2.33,2.33,0,0,1-2.33,2.33H206.17a2.33,2.33,0,0,1-2.33-2.33V110.5a0,0,0,0,1,0,0Z"/><path class="cls-8" d="M247.64,22.45c4.06-2.56,3.37-8.25.54-8.09s-2.87,4.16-2.87,4.16l-3.76-5.38a31.85,31.85,0,0,1-12.11.12c-.9,2.62-4.5,19.55,12.57,17.17C242,30.43,248.46,29.09,247.64,22.45Z"/><path class="cls-8" d="M236.29,22.77V31a3.21,3.21,0,0,0,3.21,3.21h0A3.21,3.21,0,0,0,242.71,31V22.77Z"/><path class="cls-6" d="M243.38,89.84A3.88,3.88,0,1,1,239.5,86,3.88,3.88,0,0,1,243.38,89.84Z"/><path class="cls-2" d="M129.35,221.68s-1.54,5.21-3.52,7.45-7.2,3.63-4.68,8.94l20.9-9.89L137.21,218Z"/><path class="cls-8" d="M129,211.94h5.67a0,0,0,0,1,0,0v9.54a1.58,1.58,0,0,1-1.58,1.58h-2.51a1.58,1.58,0,0,1-1.58-1.58v-9.54A0,0,0,0,1,129,211.94Z" transform="translate(-80.33 77.23) rotate(-25.31)"/><path class="cls-11" d="M145.21,51.05s-18.06,4.76-15.9,20.16c1.16,8.31,4.73,12.35,8.75,13.77,3.42,1.22,4.2-2.75,7.09-4.29,6.27-3.36,15.74-27.26,12.3-28.82S145.21,51.05,145.21,51.05Z"/><path class="cls-11" d="M146.15,51.05a12.6,12.6,0,0,1-10-9c-2.64-8.18,5.2-13,9.12-12.65,0,0,11-11.43,22.4-3.81s-2.52,21.85-2.52,21.85Z"/><path class="cls-3" d="M155.28,62.8c8.62,2-4.22,28.1-11.35,34.49-5.63,5-23.29-20.85-25.13-21.59s17.61,9,17.61,9S138.39,59,155.28,62.8Z"/><path class="cls-2" d="M165.54,111.51s1.92,7.48,1.16,22.31c-5.81,11.52-41.61,6.59-43.44,13.31-1.12,22.62,11.42,63.53,11.42,63.53l-9.85,5.16s-22-42.39-21.07-70.42c.73-21,35.68-25.18,36.41-29.38,1-5.6,1.74-8.67,1.74-8.67Z"/><path class="cls-2" d="M104,216.35s-2.62,4.76-5,6.52-7.81,2-6.49,7.74L115,225.42l-2.54-11Z"/><path class="cls-8" d="M104.46,207.23h5.67a0,0,0,0,1,0,0v9.54a1.58,1.58,0,0,1-1.58,1.58H106a1.58,1.58,0,0,1-1.58-1.58v-9.54a0,0,0,0,1,0,0Z" transform="matrix(0.97, -0.22, 0.22, 0.97, -45.01, 29.5)"/><path class="cls-4" d="M167.38,111.76s6.05,15.51-3,26.19c-8.35,9.83-47.14-1.9-50.38,4.27-5.92,21.86-2.42,64.51-2.42,64.51l-10.73,2.92s-12.46-46.12-5.52-73.29c5.2-20.34,40.24-17,41.85-20.91,2.15-5.27,3.56-8.1,3.56-8.1Z"/><path class="cls-6" d="M150.77,57.65l-5,1s-13.36,14.64-4.63,21.08c0,0-3.25,14.25-4.93,28.58,0,0-1.81,7,16.81,6.41,15.29-.44,15.73-1.82,16.4-4.84S172.62,58.12,150.77,57.65Z"/><polygon class="cls-4" points="126.58 84.8 121.94 64.35 118.96 65.13 123.92 85.25 126.58 84.8"/><path class="cls-8" d="M153.32,54.08c17.2,1.07,12-17.29,10.93-19.83a33.54,33.54,0,0,1-15.13,8.2c.19.69-.35-4-3.18-3.92s-3.83,5.54.42,7.78l-.55,12.3a3.41,3.41,0,0,0,3.36,3.57h0a3.43,3.43,0,0,0,3.45-3Z"/><path class="cls-8" d="M155.44,64.66a4.85,4.85,0,0,0-3,5.77c1.5,5.79,3.92,15.78,3.43,18.7-.52,3.19-29.63-9.8-29.63-9.8a4.57,4.57,0,0,0-.63-2.69c-1.67-2.69-2.06.58-2.06.58s-.83-2.64-2.36-3.12c-1-.3-2.68.61-2.58,3.2s3.41,4,6.53,4.51c0,0,16.25,13,25.24,15.89,17.94,5.86,16.72-7.42,11.33-30.18-.62-2.61-3.74-3.79-6.25-2.86Z"/><path class="cls-7" d="M153.61,84.42l13.26-1.12s-1.8-17.47-7.55-19.86S148,67.47,153.61,84.42Z"/></g></g></svg>