<svg xmlns="http://www.w3.org/2000/svg" viewBox="0 0 490.79 481.05"><defs><style>.cls-1{fill:#e0e0e0;}.cls-2{fill:#ebebeb;}.cls-3{fill:#fbfbfb;}.cls-4{fill:#fff;}.cls-5{fill:#f5f4f5;}.cls-6{opacity:0.2;}.cls-7{fill:#455a64;}.cls-8{fill:#263239;}.cls-9{fill:#e9505b;}.cls-10{opacity:0.4;}.cls-11{fill:#d69676;}.cls-12{fill:#ab6550;}.cls-13{fill:#f8bc9e;}.cls-14{opacity:0.3;}</style></defs><g id="Capa_2" data-name="Capa 2"><g id="Capa_1-2" data-name="Capa 1"><rect class="cls-1" x="401.76" y="136.73" width="87.85" height="145.42"/><rect class="cls-2" x="398.84" y="136.73" width="87.85" height="145.42"/><rect class="cls-3" x="402.58" y="139.68" width="80.37" height="139.52"/><rect class="cls-2" x="417.88" y="157.81" width="49.42" height="103.26"/><path class="cls-1" d="M417.88,224.53c-.11-9.64,8.56-19.06,18.11-20.41,4.56-.64,9.4.26,13.65-1.48,7.6-3.12,10-13.21,17.66-16.2l.35,74.63H417.88Z"/><polyline class="cls-2" points="64.72 464.15 64.72 145.68 60.57 145.68 60.57 464.22"/><polygon class="cls-1" points="38.98 116.5 23.58 185.3 101.71 185.3 84.13 116.71 38.98 116.5"/><path class="cls-1" d="M53.29,213.17c-.18,0-.3-8.44-.28-18.85s.19-18.86.37-18.86.3,8.44.28,18.86S53.47,213.18,53.29,213.17Z"/><path class="cls-1" d="M53.26,213.05c0-.09.56,0,.8.7a1.36,1.36,0,1,1-2.67.34,1.38,1.38,0,0,1,.67-1.08c.65-.39,1.13-.07,1.07,0s-.42,0-.8.38a1,1,0,0,0-.34.72.77.77,0,0,0,.56.67.79.79,0,0,0,.86-.15,1,1,0,0,0,.21-.77C53.56,213.33,53.21,213.13,53.26,213.05Z"/><polygon class="cls-1" points="315.02 4.61 315.02 75.65 213 75.65 209.32 5.1 315.02 4.61"/><rect class="cls-4" x="225.14" y="-10.72" width="70.39" height="102.03" transform="translate(220.03 300.63) rotate(-90)"/><path class="cls-1" d="M311.83,76h-103V4.62h103Zm-102-1H310.87V5.59H209.8Z"/><rect class="cls-4" x="220.37" y="13.85" width="79.93" height="52.9"/><path class="cls-1" d="M300.3,13.85h-.4l-1.13,0-4.39,0L277.91,14l-57.54.11.23-.23c0,16.16,0,34.07,0,52.89h0l-.25-.25,79.93,0-.2.2c0-16.1.08-29.3.1-38.49,0-4.59,0-8.18.05-10.64,0-1.22,0-2.15,0-2.8s0-1,0-1,0,.31,0,.93,0,1.56,0,2.76c0,2.45,0,6,.05,10.6,0,9.22.07,22.46.11,38.61V67h-.2l-79.93,0h-.25v-.25h0c0-18.82,0-36.73,0-52.89v-.23h.23l57.69.11,16.42.06,4.34,0,1.11,0Z"/><path class="cls-1" d="M209.32,4.91A8.3,8.3,0,0,1,211.07,6c1.05.76,2.47,1.83,4,3.05s2.89,2.39,3.84,3.26a8.43,8.43,0,0,1,1.46,1.5,71,71,0,0,1-5.61-4.36A57.05,57.05,0,0,1,209.32,4.91Z"/><path class="cls-1" d="M311.35,5.1A48.58,48.58,0,0,1,306,9.67a48.62,48.62,0,0,1-5.68,4.18,48.58,48.58,0,0,1,5.37-4.57A48.62,48.62,0,0,1,311.35,5.1Z"/><path class="cls-4" d="M311.27,75.51l-11.38-9.22"/><path class="cls-1" d="M299.89,66.29a51.57,51.57,0,0,1,5.85,4.41,53.34,53.34,0,0,1,5.53,4.81,54,54,0,0,1-5.85-4.42A55.39,55.39,0,0,1,299.89,66.29Z"/><path class="cls-1" d="M209.32,75.5A47.51,47.51,0,0,1,214.63,71a46.94,46.94,0,0,1,5.63-4.12,51.48,51.48,0,0,1-5.32,4.52A48.19,48.19,0,0,1,209.32,75.5Z"/><polygon class="cls-2" points="238.99 55.08 238.99 42.54 262.15 26.34 285.31 42.88 285.31 55.08 238.99 55.08"/><path class="cls-5" d="M239.54,42.41s10.24-.06,22.87-.06,22.87,0,22.87.06-10.24.06-22.87.06S239.54,42.44,239.54,42.41Z"/><g class="cls-6"><polygon points="267.81 44.37 267.81 55.06 272.8 55.06 272.8 44.58 272.8 44.37 267.81 44.37"/></g><g class="cls-6"><path d="M261.58,25.94l23.57,16.41V44.8L262,28.67S239,42.53,238.82,42.54Z"/></g><path class="cls-5" d="M257.68,55.11s0-5.64,0-12.59,0-12.6,0-12.6,0,5.64,0,12.6S257.69,55.11,257.68,55.11Z"/><path class="cls-5" d="M259.27,55.06s0-5.91,0-13.19,0-13.2,0-13.2,0,5.91,0,13.2S259.29,55.06,259.27,55.06Z"/><path class="cls-5" d="M260.82,55.06s0-6.14,0-13.73,0-13.73,0-13.73,0,6.15,0,13.73S260.83,55.06,260.82,55.06Z"/><path class="cls-5" d="M262.37,55.06s0-6.35,0-14.2,0-14.2,0-14.2,0,6.36,0,14.2S262.38,55.06,262.37,55.06Z"/><path class="cls-5" d="M263.92,55.06s0-6.08,0-13.59,0-13.59,0-13.59,0,6.08,0,13.59S263.93,55.06,263.92,55.06Z"/><path class="cls-5" d="M265.46,55.06s0-5.91,0-13.19,0-13.2,0-13.2,0,5.91,0,13.2S265.48,55.06,265.46,55.06Z"/><path class="cls-5" d="M267,55.06s0-5.62,0-12.57,0-12.57,0-12.57,0,5.63,0,12.57S267,55.06,267,55.06Z"/><path class="cls-5" d="M268.56,55.06s0-5.36,0-12,0-12,0-12,0,5.37,0,12S268.57,55.06,268.56,55.06Z"/><path class="cls-5" d="M270.1,55.06s0-5.1,0-11.4,0-11.41,0-11.41,0,5.11,0,11.41S270.12,55.06,270.1,55.06Z"/><path class="cls-5" d="M271.65,55.06s0-5,0-11.11,0-11.11,0-11.11,0,5,0,11.11S271.66,55.06,271.65,55.06Z"/><path class="cls-5" d="M273.2,55.06s0-4.75,0-10.6,0-10.61,0-10.61,0,4.75,0,10.61S273.21,55.06,273.2,55.06Z"/><path class="cls-5" d="M274.74,55.06s0-4.59,0-10.26,0-10.27,0-10.27,0,4.59,0,10.27S274.76,55.06,274.74,55.06Z"/><path class="cls-5" d="M256.19,55s0-5.41,0-12.08,0-12.08,0-12.08,0,5.4,0,12.08S256.2,55,256.19,55Z"/><path class="cls-5" d="M254.76,31.46s0,5.29,0,11.81,0,11.81,0,11.81,0-5.28,0-11.81S254.74,31.46,254.76,31.46Z"/><path class="cls-5" d="M253.32,55.08s0-5.14,0-11.47,0-11.48,0-11.48,0,5.14,0,11.48S253.33,55.08,253.32,55.08Z"/><path class="cls-5" d="M251.88,55.15s0-5,0-11.18,0-11.17,0-11.17,0,5,0,11.17S251.9,55.15,251.88,55.15Z"/><path class="cls-5" d="M250.45,55.08s0-4.84,0-10.81,0-10.81,0-10.81,0,4.84,0,10.81S250.46,55.08,250.45,55.08Z"/><path class="cls-5" d="M249,55.08s0-4.69,0-10.47,0-10.48,0-10.48,0,4.69,0,10.48S249,55.08,249,55.08Z"/><path class="cls-5" d="M241.71,40.47s0,3.23,0,7.22,0,7.21,0,7.21,0-3.23,0-7.21S241.7,40.47,241.71,40.47Z"/><path class="cls-5" d="M240.35,40.47s0,3.23,0,7.22,0,7.21,0,7.21,0-3.23,0-7.21S240.34,40.47,240.35,40.47Z"/><path class="cls-5" d="M246.08,54.93s0-3.85,0-8.61,0-8.62,0-8.62,0,3.86,0,8.62S246.1,54.93,246.08,54.93Z"/><path class="cls-5" d="M247.59,55s-.05-4.05-.08-9.05,0-9,0-9,.05,4.05.09,9S247.61,55,247.59,55Z"/><path class="cls-5" d="M244.54,55s0-3.61,0-8,0-8.05,0-8.05,0,3.6,0,8.05S244.56,55,244.54,55Z"/><path class="cls-5" d="M243.13,54.93s0-3.36,0-7.52,0-7.52,0-7.52,0,3.37,0,7.52S243.14,54.93,243.13,54.93Z"/><path class="cls-5" d="M276.24,55.08s0-4.3,0-9.61,0-9.6,0-9.6,0,4.3,0,9.6S276.26,55.08,276.24,55.08Z"/><path class="cls-5" d="M277.84,55.05s0-4,0-8.93,0-8.94,0-8.94,0,4,0,8.94S277.85,55.05,277.84,55.05Z"/><path class="cls-5" d="M279.24,55.08s0-3.8,0-8.48,0-8.48,0-8.48,0,3.79,0,8.48S279.26,55.08,279.24,55.08Z"/><path class="cls-5" d="M281,55.15s0-3.64,0-8.12,0-8.12,0-8.12,0,3.64,0,8.12S281,55.15,281,55.15Z"/><path class="cls-5" d="M282.78,55.15s0-3.31,0-7.38,0-7.38,0-7.38,0,3.3,0,7.38S282.8,55.15,282.78,55.15Z"/><path class="cls-5" d="M284.52,55.15s0-3,0-6.76,0-6.76,0-6.76,0,3,0,6.76S284.53,55.15,284.52,55.15Z"/><polygon class="cls-1" points="286.01 43.51 262.2 26.66 237.62 43.51 237.03 42.58 261.98 25.1 286.62 42.83 286.01 43.51"/><polyline class="cls-5" points="266.73 44.37 266.65 55.11 257.63 55.11 257.57 44.37"/><polyline class="cls-1" points="257.57 44.37 252.59 44.37 252.59 55.06 257.57 55.06 257.57 44.58"/><path class="cls-1" d="M257.58,44.58v.2c0,.14,0,.33,0,.58,0,.51,0,1.25,0,2.17,0,1.86,0,4.48,0,7.53v.06h-5.1V55c0-4.1,0-7.83,0-10.59v0h0l3.65,0h0l-3.65,0,0,0c0,2.76,0,6.49,0,10.59v.11l-.06-.06h5l-.06.05c0-3.05,0-5.67,0-7.53,0-.92,0-1.66,0-2.17,0-.25,0-.44,0-.58v-.15S257.57,44.58,257.58,44.58Z"/><polygon class="cls-1" points="266.73 44.37 266.73 55.06 271.71 55.06 271.71 44.58 271.71 44.37 266.73 44.37"/><path class="cls-1" d="M266.72,44.36h.34l1,0,3.66,0h0v0c0,2.79,0,6.56,0,10.7.05-.05-.07.08-.06.06h-5v-.06c0-3.12,0-5.8,0-7.7,0-.94,0-1.69,0-2.21,0-.25,0-.45,0-.59v-.2s0,0,0,.06v.16c0,.14,0,.34,0,.59,0,.53,0,1.28,0,2.23,0,1.89,0,4.56,0,7.66l-.06-.05h5s-.11.12-.06.06c0-4.14,0-7.91,0-10.7l0,0-3.63,0h-1.36Z"/><rect class="cls-5" x="260.38" y="31.64" width="3.97" height="5.27"/><path class="cls-1" d="M262.39,36.89s-.06-1.18-.06-2.63,0-2.62.06-2.62a25.92,25.92,0,0,1,.06,2.62A26.21,26.21,0,0,1,262.39,36.89Z"/><path class="cls-1" d="M264.37,34.17a15.09,15.09,0,0,1-2,.06,15.31,15.31,0,0,1-2-.06,17.72,17.72,0,0,1,2-.06A17.47,17.47,0,0,1,264.37,34.17Z"/><path class="cls-1" d="M292.8,55.08c0,.11-13.22.19-29.53.19s-29.53-.08-29.53-.19,13.22-.19,29.53-.19S292.8,55,292.8,55.08Z"/><rect class="cls-1" x="403.45" y="23.03" width="79.65" height="83.02"/><rect class="cls-3" x="398.05" y="23.03" width="79.65" height="83.02"/><path class="cls-1" d="M477.73,106.08H398V23h79.7Zm-79.65,0h79.6v-83h-79.6Z"/><rect class="cls-3" x="408.76" y="34.19" width="58.23" height="60.7"/><path class="cls-1" d="M408.76,95.29A9.13,9.13,0,0,1,407.32,97c-.93,1-2.23,2.31-3.7,3.76s-2.81,2.73-3.8,3.64a9.32,9.32,0,0,1-1.68,1.4,9,9,0,0,1,1.42-1.66c.93-1,2.24-2.32,3.71-3.76s2.82-2.74,3.82-3.65A10,10,0,0,1,408.76,95.29Z"/><path class="cls-1" d="M467,95.14a9.67,9.67,0,0,1,1.67,1.44c1,.93,2.31,2.24,3.76,3.7s2.73,2.81,3.64,3.81a9.32,9.32,0,0,1,1.4,1.68,9.35,9.35,0,0,1-1.66-1.43c-1-.93-2.32-2.24-3.76-3.71s-2.74-2.82-3.65-3.81A9.32,9.32,0,0,1,467,95.14Z"/><path class="cls-1" d="M466.83,34.35a9.67,9.67,0,0,1,1.44-1.67c.93-1,2.24-2.31,3.7-3.75s2.81-2.73,3.81-3.65a9.32,9.32,0,0,1,1.68-1.4A9.58,9.58,0,0,1,476,25.55c-.93,1-2.24,2.31-3.71,3.76S469.5,32,468.51,33A8.8,8.8,0,0,1,466.83,34.35Z"/><path class="cls-1" d="M408.6,34.5a10.13,10.13,0,0,1-1.67-1.44c-1-.93-2.31-2.24-3.75-3.7s-2.73-2.81-3.64-3.8a8.52,8.52,0,0,1-1.4-1.69,9.35,9.35,0,0,1,1.66,1.43c1,.93,2.31,2.24,3.76,3.71s2.73,2.82,3.65,3.81A8.81,8.81,0,0,1,408.6,34.5Z"/><path class="cls-1" d="M466.83,94.89s0-.1,0-.3,0-.48,0-.84c0-.76,0-1.86,0-3.28,0-2.87,0-7.06-.06-12.37,0-10.63-.06-25.78-.11-43.91l.22.22-58.06,0h0l.26-.26c0,22.28,0,43.12,0,60.7l-.22-.22,42.05.11,11.81.06,3.13,0,.8,0h-.76l-3.08,0L451,95l-42.19.11h-.22v-.22c0-17.58,0-38.42,0-60.7v-.26h.27l58.06,0h.23v.23C467,52.38,467,67.58,467,78.24c0,5.29-.05,9.46-.06,12.32q0,2.11,0,3.24c0,.35,0,.62,0,.82A1.39,1.39,0,0,1,466.83,94.89Z"/><rect class="cls-2" x="428.16" y="54.82" width="19.43" height="19.43"/><rect class="cls-7" x="28.8" y="83.8" width="114.56" height="5.9"/><path class="cls-1" d="M127.88,30.23s0-.06-.07-.16l-.25-.46c-.23-.4-.58-1-1.08-1.69a18.21,18.21,0,0,0-5.36-5.07,13.16,13.16,0,0,0-4.81-1.76,11.78,11.78,0,0,0-5.84.61,9.46,9.46,0,0,0-5,4.09c-1.15,2-1.52,4.36-2.19,6.61a12.44,12.44,0,0,1-1.4,3.15,9.75,9.75,0,0,1-2.37,2.34c-.9.66-1.83,1.25-2.68,1.94a11.77,11.77,0,0,0-2.17,2.36,14.5,14.5,0,0,0-2.23,5.44,19.7,19.7,0,0,0-.3,5.11A39.52,39.52,0,0,0,93.45,60c.22.84.41,1.49.54,1.93a3.21,3.21,0,0,0,.22.66,6.43,6.43,0,0,0-.14-.68c-.12-.48-.27-1.13-.46-2a41.86,41.86,0,0,1-1.18-7.25,19.6,19.6,0,0,1,.34-5A14.17,14.17,0,0,1,95,42.4a11,11,0,0,1,2.11-2.27c.82-.67,1.75-1.26,2.66-1.92a10.07,10.07,0,0,0,2.48-2.44,12.22,12.22,0,0,0,1.44-3.26c.68-2.28,1-4.6,2.15-6.52a9.09,9.09,0,0,1,4.78-3.94,11.68,11.68,0,0,1,5.67-.63A13.05,13.05,0,0,1,121,23.1,18.7,18.7,0,0,1,126.35,28c.52.69.89,1.26,1.14,1.64A5.09,5.09,0,0,0,127.88,30.23Z"/><path class="cls-1" d="M98.47,38.48c.62-.58.92-.18,1.75,0a5.14,5.14,0,0,1,2.25,1.12,9.48,9.48,0,0,1,3.07,9.94,7.4,7.4,0,0,1-6.79-11.11"/><path class="cls-1" d="M123.91,26.9c.31-.79.76-.56,1.57-.78a5.25,5.25,0,0,1,2.52.05,9.47,9.47,0,0,1,7,7.65,7.39,7.39,0,0,1-10.9-7.1"/><path class="cls-1" d="M92.86,54.15a8.55,8.55,0,0,1,13.42.66,10.55,10.55,0,0,1-7,2.74,10.85,10.85,0,0,1-7-2.83"/><path class="cls-1" d="M95,42.45a8.65,8.65,0,0,1-8.73-10.32,7.76,7.76,0,0,1,9,10.23"/><path class="cls-1" d="M103.91,28.69a8.65,8.65,0,0,1-11.67-6.83,7.76,7.76,0,0,1,11.91,6.65"/><path class="cls-1" d="M106.91,24.19A8.65,8.65,0,0,1,118.58,31a7.76,7.76,0,0,1-11.91-6.65"/><path class="cls-1" d="M110.49,21.78a8.65,8.65,0,0,1-4.6-12.71,7.76,7.76,0,0,1,4.9,12.73"/><path class="cls-1" d="M119.66,22.21a8.63,8.63,0,0,1,7.06-11.52,7.91,7.91,0,0,1,.06,7.93,7.93,7.93,0,0,1-7,3.84"/><polyline class="cls-8" points="82.69 84.2 77.8 53.54 115.25 53.99 111.56 83.81"/><path class="cls-9" d="M98.85,47.94a6.39,6.39,0,0,0,6.21.52,6.71,6.71,0,0,0,3.4-5.37,7.18,7.18,0,0,0-10.33,4.3"/><path class="cls-9" d="M116,54.54a6.39,6.39,0,0,0,6.22.53,6.76,6.76,0,0,0,3.4-5.38,7.65,7.65,0,0,0-6.21-.31A7.55,7.55,0,0,0,115.25,54"/><path class="cls-9" d="M106.36,39.79a6.36,6.36,0,0,0,4.9,3.86A6.73,6.73,0,0,0,117.05,41a7.66,7.66,0,0,0-5-3.68,7.57,7.57,0,0,0-6,1.59"/><path class="cls-9" d="M112.6,47.43A6.41,6.41,0,0,0,107,50.2a6.75,6.75,0,0,0-.12,6.36,7.69,7.69,0,0,0,5.47-2.94,7.56,7.56,0,0,0,1.14-6.09"/><path class="cls-9" d="M118.63,59.5a6.41,6.41,0,0,0,.15,6.24,6.77,6.77,0,0,0,5.71,2.8,7.63,7.63,0,0,0-.35-6.2c-1-1.79-2.76-2.68-5-3.18"/><path class="cls-9" d="M128.59,60.92a4.65,4.65,0,0,0-1.48-.94,6.6,6.6,0,0,0-2-.36,24.08,24.08,0,0,0-2.77.17,8,8,0,0,1-3.4-.3,5.16,5.16,0,0,1-2.81-2.71,15.51,15.51,0,0,1-1.21-4.14,11.9,11.9,0,0,0-1.44-4.25,14.9,14.9,0,0,0-3.17-3.22,15.71,15.71,0,0,1-3-3.07,10.15,10.15,0,0,1-1.5-7.05,9.9,9.9,0,0,1,1.83-4.53,8.17,8.17,0,0,1,.9-1,1.63,1.63,0,0,1,.36-.3l-.3.36a8.71,8.71,0,0,0-.83,1A10.1,10.1,0,0,0,106,35.09a10,10,0,0,0,1.53,6.8,15.56,15.56,0,0,0,3,3,15,15,0,0,1,3.25,3.3,12.23,12.23,0,0,1,1.49,4.39,15.17,15.17,0,0,0,1.16,4A4.85,4.85,0,0,0,119,59.18a7.87,7.87,0,0,0,3.26.32,23.09,23.09,0,0,1,2.8-.1,6.39,6.39,0,0,1,2.07.43,3.48,3.48,0,0,1,1.13.73,3.31,3.31,0,0,1,.23.26Z"/><path class="cls-9" d="M128.59,60.92a4.65,4.65,0,0,0-1.48-.94,6.6,6.6,0,0,0-2-.36,24.08,24.08,0,0,0-2.77.17,8,8,0,0,1-3.4-.3,5.16,5.16,0,0,1-2.81-2.71,15.51,15.51,0,0,1-1.21-4.14,11.9,11.9,0,0,0-1.44-4.25,14.9,14.9,0,0,0-3.17-3.22,15.71,15.71,0,0,1-3-3.07,10.15,10.15,0,0,1-1.5-7.05,9.9,9.9,0,0,1,1.83-4.53,8.17,8.17,0,0,1,.9-1,1.63,1.63,0,0,1,.36-.3l-.3.36a8.71,8.71,0,0,0-.83,1A10.1,10.1,0,0,0,106,35.09a10,10,0,0,0,1.53,6.8,15.56,15.56,0,0,0,3,3,15,15,0,0,1,3.25,3.3,12.23,12.23,0,0,1,1.49,4.39,15.17,15.17,0,0,0,1.16,4A4.85,4.85,0,0,0,119,59.18a7.87,7.87,0,0,0,3.26.32,23.09,23.09,0,0,1,2.8-.1,6.39,6.39,0,0,1,2.07.43,3.48,3.48,0,0,1,1.13.73,3.31,3.31,0,0,1,.23.26Z"/><path class="cls-9" d="M57.11,64.07a9.48,9.48,0,0,0-12.82-9.34A15.8,15.8,0,0,0,56.77,64"/><path class="cls-9" d="M54.64,65.37c-1.83,2-1.72,5.25-.41,7.63s3.57,4.08,5.83,5.59a12.29,12.29,0,0,0-5.3-14"/><path class="cls-9" d="M63.51,55.94a10.93,10.93,0,0,0,12.42,9.74c-.71-2.94-1.89-5.91-4.17-7.91S65.91,55,63.39,56.71"/><path class="cls-9" d="M63.45,52.94c-.46-2.68-3.1-4.62-5.81-4.87a11.09,11.09,0,0,0-7.55,2.54,9.82,9.82,0,0,0,13.38,1.32"/><path class="cls-9" d="M49.5,75.73c-2.57,2.19-3.22,6.1-2.15,9.31a15.47,15.47,0,0,0,6.39,7.64,20.34,20.34,0,0,0,1.18-9.9,10.38,10.38,0,0,0-5.64-7.85"/><path class="cls-9" d="M63,45.42a7.91,7.91,0,0,1,12.52-.73A6.82,6.82,0,0,1,63.23,45"/><path class="cls-9" d="M66.18,37.7a10.28,10.28,0,0,1-13.1-8,22.9,22.9,0,0,1,6.19.09,10,10,0,0,1,5.48,2.7,5.43,5.43,0,0,1,1.43,5.24"/><path class="cls-9" d="M72.12,35.7a8.4,8.4,0,0,1-.05-13,17.63,17.63,0,0,1,3.67,7.83,6.46,6.46,0,0,1,0,3.24,3,3,0,0,1-2.26,2.12"/><g class="cls-10"><path d="M57.11,64.07a9.48,9.48,0,0,0-12.82-9.34A15.8,15.8,0,0,0,56.77,64"/></g><g class="cls-10"><path d="M54.64,65.37c-1.83,2-1.72,5.25-.41,7.63s3.57,4.08,5.83,5.59a12.29,12.29,0,0,0-5.3-14"/></g><g class="cls-10"><path d="M63.51,55.94a10.93,10.93,0,0,0,12.42,9.74c-.71-2.94-1.89-5.91-4.17-7.91S65.91,55,63.39,56.71"/></g><g class="cls-10"><path d="M63.45,52.94c-.46-2.68-3.1-4.62-5.81-4.87a11.09,11.09,0,0,0-7.55,2.54,9.82,9.82,0,0,0,13.38,1.32"/></g><g class="cls-10"><path d="M49.5,75.73c-2.57,2.19-3.22,6.1-2.15,9.31a15.47,15.47,0,0,0,6.39,7.64,20.34,20.34,0,0,0,1.18-9.9,10.38,10.38,0,0,0-5.64-7.85"/></g><g class="cls-10"><path d="M63,45.42a7.91,7.91,0,0,1,12.52-.73A6.82,6.82,0,0,1,63.23,45"/></g><g class="cls-10"><path d="M66.18,37.7a10.28,10.28,0,0,1-13.1-8,22.9,22.9,0,0,1,6.19.09,10,10,0,0,1,5.48,2.7,5.43,5.43,0,0,1,1.43,5.24"/></g><g class="cls-10"><path d="M72.12,35.7a8.4,8.4,0,0,1-.05-13,17.63,17.63,0,0,1,3.67,7.83,6.46,6.46,0,0,1,0,3.24,3,3,0,0,1-2.26,2.12"/></g><path class="cls-9" d="M82.39,54.52v-.21c0-.16,0-.36,0-.61,0-.55.09-1.34.1-2.37a21,21,0,0,0-1.39-8.51A12.88,12.88,0,0,0,77.72,38a9.1,9.1,0,0,0-6.23-2.3,8,8,0,0,0-3.51.88,7,7,0,0,0-2.71,2.6A13.91,13.91,0,0,0,63.69,47a55.52,55.52,0,0,1,.19,8.23,13,13,0,0,1-1,3.82,8,8,0,0,1-2.31,3,11.65,11.65,0,0,1-3.21,1.65,16,16,0,0,0-3,1.37,10.93,10.93,0,0,0-4,4.32,10.49,10.49,0,0,0-1.15,4.74,11.1,11.1,0,0,0,.6,3.66,13.48,13.48,0,0,0,1.42,2.84s0-.05-.14-.16a5.76,5.76,0,0,1-.36-.5,10.32,10.32,0,0,1-1.07-2.13A11.14,11.14,0,0,1,49,74.15a10.52,10.52,0,0,1,1.11-4.86,11.26,11.26,0,0,1,4-4.49c1.85-1.23,4.3-1.54,6.18-3a9.59,9.59,0,0,0,3.16-6.59A56.41,56.41,0,0,0,63.29,47a14.23,14.23,0,0,1,1.64-8,7.37,7.37,0,0,1,2.87-2.73,8.24,8.24,0,0,1,3.69-.91,9.41,9.41,0,0,1,6.45,2.41,13.21,13.21,0,0,1,3.47,5,18,18,0,0,1,1.18,4.85,26.42,26.42,0,0,1,.1,3.77c0,1-.12,1.83-.18,2.37,0,.25-.06.46-.08.62A.69.69,0,0,1,82.39,54.52Z"/><g class="cls-10"><path d="M82.39,54.52v-.21c0-.16,0-.36,0-.61,0-.55.09-1.34.1-2.37a21,21,0,0,0-1.39-8.51A12.88,12.88,0,0,0,77.72,38a9.1,9.1,0,0,0-6.23-2.3,8,8,0,0,0-3.51.88,7,7,0,0,0-2.71,2.6A13.91,13.91,0,0,0,63.69,47a55.52,55.52,0,0,1,.19,8.23,13,13,0,0,1-1,3.82,8,8,0,0,1-2.31,3,11.65,11.65,0,0,1-3.21,1.65,16,16,0,0,0-3,1.37,10.93,10.93,0,0,0-4,4.32,10.49,10.49,0,0,0-1.15,4.74,11.1,11.1,0,0,0,.6,3.66,13.48,13.48,0,0,0,1.42,2.84s0-.05-.14-.16a5.76,5.76,0,0,1-.36-.5,10.32,10.32,0,0,1-1.07-2.13A11.14,11.14,0,0,1,49,74.15a10.52,10.52,0,0,1,1.11-4.86,11.26,11.26,0,0,1,4-4.49c1.85-1.23,4.3-1.54,6.18-3a9.59,9.59,0,0,0,3.16-6.59A56.41,56.41,0,0,0,63.29,47a14.23,14.23,0,0,1,1.64-8,7.37,7.37,0,0,1,2.87-2.73,8.24,8.24,0,0,1,3.69-.91,9.41,9.41,0,0,1,6.45,2.41,13.21,13.21,0,0,1,3.47,5,18,18,0,0,1,1.18,4.85,26.42,26.42,0,0,1,.1,3.77c0,1-.12,1.83-.18,2.37,0,.25-.06.46-.08.62A.69.69,0,0,1,82.39,54.52Z"/></g><path class="cls-9" d="M136.91,47.83a7.94,7.94,0,0,0,.56-2.74,6.82,6.82,0,0,0-.73-3.17,6.57,6.57,0,0,0-3.05-3,7,7,0,0,0-2.41-.65,7.9,7.9,0,0,0-2.69.32c-1.83.48-3.65,1.52-5.82,2a6.77,6.77,0,0,1-3.37-.08,5.09,5.09,0,0,1-2.75-2.19c-1.31-2-1.68-4.58-3.26-6.45a6.4,6.4,0,0,0-3-1.93,8.34,8.34,0,0,0-3.46-.35,8.84,8.84,0,0,0-5.75,3,13.41,13.41,0,0,0-2.85,5.28,16,16,0,0,0-.64,5.23,58.77,58.77,0,0,0,1,7.65l.36,2.07c0,.22.06.4.08.54a1.29,1.29,0,0,1,0,.19s0-.06-.06-.18S99,53,99,52.82c-.1-.5-.25-1.19-.43-2a51.94,51.94,0,0,1-1.1-7.67,15.86,15.86,0,0,1,.6-5.34A13.75,13.75,0,0,1,101,32.33a10.44,10.44,0,0,1,2.63-2.1,9,9,0,0,1,7-.67,6.81,6.81,0,0,1,3.14,2.05c1.67,2,2,4.57,3.28,6.49a4.73,4.73,0,0,0,2.53,2,6.63,6.63,0,0,0,3.19.09c2.09-.4,3.92-1.43,5.8-1.92a8.22,8.22,0,0,1,2.81-.3A7,7,0,0,1,137,41.82a7,7,0,0,1,.68,3.27,6.79,6.79,0,0,1-.4,2.08A3.16,3.16,0,0,1,136.91,47.83Z"/><path class="cls-9" d="M115,34.24a7.27,7.27,0,0,0,6.68.44,6.69,6.69,0,0,0,3.4-5.37,7.67,7.67,0,0,0-6.2-.32,7.58,7.58,0,0,0-4.13,4.62"/><path class="cls-9" d="M122.11,40.68a7.3,7.3,0,0,0,3.1,5.93,6.7,6.7,0,0,0,6.36.11,7.64,7.64,0,0,0-3-5.46,7.56,7.56,0,0,0-6.09-1.12"/><path class="cls-9" d="M134.43,39.26a7.28,7.28,0,0,0,6.68-.28,6.72,6.72,0,0,0,2.81-5.7,7.18,7.18,0,0,0-9.81,5.37"/><path class="cls-9" d="M104.67,30c-1.79-1.55-3-4.26-2.65-6.3a6.74,6.74,0,0,1,4.12-4.84,7.62,7.62,0,0,1,2.14,5.84,7.53,7.53,0,0,1-3.19,5.3"/><path class="cls-9" d="M56.59,21.16s0-.05.07-.16l.25-.46A19.58,19.58,0,0,1,58,18.85a18,18,0,0,1,5.35-5.06A13.06,13.06,0,0,1,68.16,12a11.89,11.89,0,0,1,5.84.61,9.57,9.57,0,0,1,5,4.09c1.15,2,1.52,4.36,2.19,6.61a11.93,11.93,0,0,0,1.39,3.15A9.62,9.62,0,0,0,85,28.82c.89.66,1.82,1.25,2.67,1.94a11.49,11.49,0,0,1,2.17,2.36A14.34,14.34,0,0,1,92,38.56a19.27,19.27,0,0,1,.3,5.11A38.69,38.69,0,0,1,91,50.94c-.22.84-.41,1.49-.54,1.93s-.2.67-.21.67a3.46,3.46,0,0,1,.13-.69c.12-.48.27-1.13.47-2A41.85,41.85,0,0,0,92,43.65a19.09,19.09,0,0,0-.34-5,14.43,14.43,0,0,0-2.2-5.3,11.25,11.25,0,0,0-2.11-2.26c-.83-.67-1.76-1.26-2.67-1.93a9.82,9.82,0,0,1-2.47-2.43,12.39,12.39,0,0,1-1.45-3.26c-.68-2.29-1-4.61-2.15-6.53A9.1,9.1,0,0,0,73.87,13a11.66,11.66,0,0,0-5.66-.63A13,13,0,0,0,63.5,14a18.84,18.84,0,0,0-5.38,4.91c-.52.7-.89,1.26-1.14,1.64A3.82,3.82,0,0,1,56.59,21.16Z"/><path class="cls-9" d="M86,29.41c-.62-.57-.92-.17-1.75,0A5.14,5.14,0,0,0,82,30.51a9.48,9.48,0,0,0-3.07,9.94,7.39,7.39,0,0,0,6.79-11.1"/><path class="cls-9" d="M60.56,17.83c-.31-.79-.76-.55-1.57-.77a5.08,5.08,0,0,0-2.51,0,9.46,9.46,0,0,0-7,7.65,7.38,7.38,0,0,0,10.9-7.1"/><path class="cls-9" d="M91.61,45.09a8.53,8.53,0,0,0-13.41.65,10.52,10.52,0,0,0,7,2.74,10.73,10.73,0,0,0,7-2.83"/><path class="cls-9" d="M89.52,33.38a8.64,8.64,0,0,0,8.73-10.32,7.77,7.77,0,0,0-9,10.24"/><path class="cls-9" d="M80.56,19.62a8.65,8.65,0,0,0,11.67-6.83,7.77,7.77,0,0,0-11.91,6.66"/><path class="cls-9" d="M77.56,15.13A8.64,8.64,0,0,0,65.9,22,7.76,7.76,0,0,0,77.8,15.3"/><path class="cls-9" d="M74,12.71a8.79,8.79,0,0,0,5.36-5.25A8.75,8.75,0,0,0,78.58,0a7.93,7.93,0,0,0-6.23,4.91,7.9,7.9,0,0,0,1.34,7.82"/><path class="cls-9" d="M64.81,13.15a8.8,8.8,0,0,0-.75-7.47,8.79,8.79,0,0,0-6.31-4.06,7.93,7.93,0,0,0,0,7.94,7.92,7.92,0,0,0,6.94,3.83"/><polygon class="cls-8" points="77.33 80.65 80.19 84.2 115.43 84.2 117.83 80.65 77.33 80.65"/><path class="cls-7" d="M117.06,80.62c0,.11-8.66.2-19.34.2s-19.34-.09-19.34-.2,8.66-.2,19.34-.2S117.06,80.51,117.06,80.62Z"/><path class="cls-7" d="M113.1,67.24a1.39,1.39,0,0,1-.22.29,8.92,8.92,0,0,1-.72.75A13.2,13.2,0,0,1,109,70.47a13.91,13.91,0,0,1-5.5,1.41,13.43,13.43,0,0,1-3.36-.28,19.8,19.8,0,0,1-3.44-1.14c-2.27-1-4.33-2.07-6.34-2.71a11,11,0,0,0-5.48-.53,7.15,7.15,0,0,0-3.37,1.56c-.67.59-.92,1-1,1a1.74,1.74,0,0,1,.18-.32,5.29,5.29,0,0,1,.68-.79,6.9,6.9,0,0,1,3.41-1.73,11,11,0,0,1,5.65.46,68.36,68.36,0,0,1,6.39,2.69,20.69,20.69,0,0,0,3.36,1.12,13.74,13.74,0,0,0,3.27.3,14.14,14.14,0,0,0,5.39-1.3A16.89,16.89,0,0,0,113.1,67.24Z"/><path class="cls-7" d="M113.45,64.49s-.08.1-.25.27a6.63,6.63,0,0,1-.77.7,14.31,14.31,0,0,1-3.26,2,15.19,15.19,0,0,1-5.54,1.32,15,15,0,0,1-3.37-.22,22.72,22.72,0,0,1-3.48-1c-2.33-.85-4.46-1.82-6.51-2.38a12.82,12.82,0,0,0-5.52-.51,8.31,8.31,0,0,0-3.49,1.34c-.73.51-1.05.9-1.08.87s.06-.11.22-.29a5.56,5.56,0,0,1,.76-.71,8.17,8.17,0,0,1,3.54-1.49,12.94,12.94,0,0,1,5.68.43c2.08.56,4.23,1.52,6.53,2.36a22.89,22.89,0,0,0,3.42,1,15,15,0,0,0,3.29.25,15.6,15.6,0,0,0,5.44-1.21A19.65,19.65,0,0,0,113.45,64.49Z"/><rect class="cls-7" x="59.82" y="88.15" width="3.44" height="9.59"/><rect class="cls-7" x="108.89" y="88.15" width="3.44" height="9.59"/><rect class="cls-8" x="130.65" y="99.57" width="247.47" height="173.83"/><rect class="cls-3" x="136.89" y="107.4" width="234.84" height="158.17"/><path class="cls-8" d="M371.73,265.57s0-1,0-2.87,0-4.68,0-8.33c0-7.32,0-18.06-.06-31.81,0-27.48-.07-67-.12-115.16l.23.23-234.82.06h0l.29-.29c0,56.38,0,110,0,158.17l-.27-.26,169.24.13,48.32.07,12.84,0,3.31,0h1.13l-1.1,0h-3.28l-12.79,0-48.25.07-169.42.13h-.26v-.26c0-48.19,0-101.79,0-158.17v-.28h.3l234.82,0H372v.23c0,48.22-.09,87.79-.12,115.3,0,13.73,0,24.46-.06,31.76,0,3.63,0,6.41,0,8.29S371.73,265.57,371.73,265.57Z"/><polygon class="cls-2" points="194.3 249.03 142.18 249.03 141.95 166.66 194.07 166.66 194.3 249.03"/><rect class="cls-1" x="168.01" y="166.66" width="26.06" height="82.37"/><rect class="cls-2" x="147.9" y="150.44" width="18.41" height="16.22"/><rect class="cls-1" x="161.92" y="150.44" width="4.39" height="16.22"/><rect class="cls-1" x="137.61" y="165.71" width="57.99" height="0.95"/><rect class="cls-4" x="152.24" y="173.73" width="4.41" height="9.3"/><path class="cls-1" d="M168,186.69c0,.09-5.83.17-13,.17s-13-.08-13-.17,5.83-.18,13-.18S168,186.59,168,186.69Z"/><rect class="cls-5" x="178.53" y="173.73" width="4.41" height="9.3"/><path class="cls-2" d="M194.3,186.69c0,.09-5.83.17-13,.17s-13-.08-13-.17,5.83-.18,13-.18S194.3,186.59,194.3,186.69Z"/><rect class="cls-5" x="178.53" y="192.2" width="4.41" height="9.3"/><path class="cls-2" d="M194.3,205.16c0,.09-5.83.17-13,.17s-13-.08-13-.17,5.83-.18,13-.18S194.3,205.06,194.3,205.16Z"/><rect class="cls-5" x="178.53" y="211.23" width="4.41" height="9.3"/><path class="cls-2" d="M194.3,224.18c0,.1-5.83.18-13,.18s-13-.08-13-.18,5.83-.17,13-.17S194.3,224.08,194.3,224.18Z"/><rect class="cls-5" x="178.53" y="230.26" width="4.41" height="9.3"/><path class="cls-2" d="M194.3,243.21c0,.1-5.83.18-13,.18s-13-.08-13-.18,5.83-.18,13-.18S194.3,243.11,194.3,243.21Z"/><rect class="cls-4" x="152.24" y="192.48" width="4.41" height="9.3"/><path class="cls-1" d="M168,205.44c0,.1-5.83.18-13,.18s-13-.08-13-.18,5.83-.18,13-.18S168,205.34,168,205.44Z"/><rect class="cls-4" x="152.24" y="211.24" width="4.41" height="9.3"/><path class="cls-1" d="M168,224.19c0,.1-5.83.18-13,.18s-13-.08-13-.18,5.83-.18,13-.18S168,224.09,168,224.19Z"/><rect class="cls-4" x="152.24" y="229.99" width="4.41" height="9.3"/><path class="cls-1" d="M168,242.94c0,.1-5.83.18-13,.18s-13-.08-13-.18,5.83-.18,13-.18S168,242.84,168,242.94Z"/><rect class="cls-2" x="276.05" y="150.96" width="35.01" height="91.63"/><rect class="cls-1" x="293.56" y="150.96" width="17.5" height="91.63"/><rect class="cls-2" x="280.05" y="140.06" width="12.36" height="10.89"/><rect class="cls-1" x="289.47" y="140.06" width="2.95" height="10.89"/><rect class="cls-1" x="273.14" y="150.32" width="38.95" height="0.64"/><rect class="cls-4" x="282.96" y="155.71" width="2.96" height="6.25"/><path class="cls-1" d="M293.56,164.41c0,.06-3.92.12-8.75.12s-8.76-.06-8.76-.12,3.92-.12,8.76-.12S293.56,164.34,293.56,164.41Z"/><rect class="cls-5" x="300.62" y="155.71" width="2.96" height="6.25"/><path class="cls-2" d="M311.21,164.41c0,.06-3.91.12-8.75.12s-8.75-.06-8.75-.12,3.92-.12,8.75-.12S311.21,164.34,311.21,164.41Z"/><rect class="cls-5" x="300.62" y="168.11" width="2.96" height="6.25"/><path class="cls-2" d="M311.21,176.81c0,.07-3.91.12-8.75.12s-8.75-.05-8.75-.12,3.92-.12,8.75-.12S311.21,176.75,311.21,176.81Z"/><rect class="cls-5" x="300.62" y="180.89" width="2.96" height="6.25"/><path class="cls-2" d="M311.21,189.59c0,.07-3.91.12-8.75.12s-8.75-.05-8.75-.12,3.92-.12,8.75-.12S311.21,189.53,311.21,189.59Z"/><rect class="cls-5" x="300.62" y="193.67" width="2.96" height="6.25"/><path class="cls-2" d="M311.21,202.37c0,.07-3.91.12-8.75.12s-8.75-.05-8.75-.12,3.92-.12,8.75-.12S311.21,202.31,311.21,202.37Z"/><rect class="cls-5" x="300.62" y="206.08" width="2.96" height="6.25"/><path class="cls-2" d="M311.21,214.78c0,.07-3.91.12-8.75.12s-8.75-.05-8.75-.12,3.92-.11,8.75-.11S311.21,214.72,311.21,214.78Z"/><rect class="cls-5" x="300.62" y="218.55" width="2.96" height="6.25"/><rect class="cls-5" x="300.62" y="231.18" width="2.96" height="6.25"/><path class="cls-2" d="M311.21,227.25c0,.06-3.91.12-8.75.12s-8.75-.06-8.75-.12,3.92-.12,8.75-.12S311.21,227.18,311.21,227.25Z"/><rect class="cls-4" x="282.96" y="168.3" width="2.96" height="6.25"/><path class="cls-1" d="M293.56,177c0,.07-3.92.12-8.75.12s-8.76-.05-8.76-.12,3.92-.12,8.76-.12S293.56,176.94,293.56,177Z"/><rect class="cls-4" x="282.96" y="180.9" width="2.96" height="6.25"/><path class="cls-1" d="M293.56,189.6c0,.06-3.92.12-8.75.12s-8.76-.06-8.76-.12,3.92-.12,8.76-.12S293.56,189.53,293.56,189.6Z"/><rect class="cls-4" x="282.96" y="193.49" width="2.96" height="6.25"/><path class="cls-1" d="M293.56,202.19c0,.07-3.92.12-8.75.12s-8.76-.05-8.76-.12,3.92-.12,8.76-.12S293.56,202.12,293.56,202.19Z"/><rect class="cls-4" x="282.96" y="206.08" width="2.96" height="6.25"/><path class="cls-1" d="M293.56,214.78c0,.07-3.92.12-8.75.12s-8.76-.05-8.76-.12,3.92-.11,8.76-.11S293.56,214.72,293.56,214.78Z"/><rect class="cls-4" x="282.96" y="218.68" width="2.96" height="6.25"/><path class="cls-1" d="M293.56,227.38c0,.07-3.92.12-8.75.12s-8.76-.05-8.76-.12,3.92-.12,8.76-.12S293.56,227.31,293.56,227.38Z"/><rect class="cls-4" x="282.96" y="231.27" width="2.96" height="6.25"/><rect class="cls-1" x="301.73" y="131.94" width="58.67" height="111.35"/><rect class="cls-2" x="332.9" y="131.94" width="27.51" height="111.35"/><rect class="cls-5" x="314.04" y="142.42" width="5.28" height="12.82"/><rect class="cls-5" x="314.04" y="192.58" width="5.28" height="12.82"/><path class="cls-5" d="M332.9,160.26c0,.11-7,.2-15.58.2s-15.59-.09-15.59-.2,7-.2,15.59-.2S332.9,160.15,332.9,160.26Z"/><rect class="cls-5" x="314.04" y="167.69" width="5.28" height="12.82"/><path class="cls-5" d="M332.9,185.54c0,.11-7,.2-15.58.2s-15.59-.09-15.59-.2,7-.2,15.59-.2S332.9,185.43,332.9,185.54Z"/><rect class="cls-1" x="338.74" y="142.42" width="5.28" height="12.82"/><rect class="cls-1" x="350.18" y="142.42" width="5.28" height="12.82"/><rect class="cls-1" x="338.74" y="166.74" width="5.28" height="12.82"/><rect class="cls-1" x="350.18" y="166.74" width="5.28" height="12.82"/><rect class="cls-1" x="338.74" y="191.06" width="5.28" height="12.82"/><rect class="cls-1" x="350.18" y="191.06" width="5.28" height="12.82"/><rect class="cls-1" x="297.32" y="129.25" width="67.49" height="2.79"/><path class="cls-2" d="M360.81,132.3c0,.11-13.11.2-29.28.2s-29.29-.09-29.29-.2,13.11-.2,29.29-.2S360.81,132.19,360.81,132.3Z"/><rect class="cls-7" x="136.89" y="234.91" width="55.4" height="30.66"/><path class="cls-9" d="M155.27,123.31h1.41v4.94h3v1.14h-4.46Z"/><path class="cls-9" d="M160.26,123.31a.77.77,0,0,1,.84-.75.76.76,0,0,1,.84.73.84.84,0,0,1-1.68,0Zm.16,1.41h1.36v4.67h-1.36Z"/><path class="cls-9" d="M167.68,124.72l-2,4.67h-1.4l-2-4.67h1.4l1.3,3.18,1.33-3.18Z"/><path class="cls-9" d="M172.66,127.44h-3.54a1.25,1.25,0,0,0,1.34.94,1.57,1.57,0,0,0,1.17-.46l.72.79a2.45,2.45,0,0,1-1.93.75,2.42,2.42,0,0,1-2.66-2.4,2.38,2.38,0,0,1,2.49-2.41,2.31,2.31,0,0,1,2.43,2.42C172.68,127.18,172.67,127.33,172.66,127.44Zm-3.56-.79h2.31a1.17,1.17,0,0,0-2.31,0Z"/><path class="cls-9" d="M175.2,132.35h-24V120.44h24Zm-23.19-.8H174.4V121.24H152Z"/><rect class="cls-4" x="160.42" y="250.29" width="24.83" height="8"/><path class="cls-4" d="M156.25,241.38v6.35H155l-3.16-3.86v3.86h-1.46v-6.35h1.22l3.16,3.85v-3.85Z"/><path class="cls-4" d="M162.68,246.55v1.18h-4.92v-6.35h4.8v1.18h-3.34v1.38h2.95v1.14h-2.95v1.47Z"/><path class="cls-4" d="M173.36,241.38l-2.08,6.35h-1.57l-1.4-4.3-1.45,4.3h-1.57l-2.08-6.35h1.52l1.44,4.46,1.49-4.46H169l1.46,4.5,1.48-4.5Z"/><path class="cls-4" d="M173.68,247.1l.5-1.1a3.77,3.77,0,0,0,2.1.66c.87,0,1.23-.29,1.23-.68,0-1.19-3.7-.37-3.7-2.73,0-1.08.87-2,2.68-2a4.26,4.26,0,0,1,2.2.56l-.45,1.12a3.55,3.55,0,0,0-1.76-.5c-.87,0-1.21.33-1.21.72,0,1.18,3.7.37,3.7,2.7,0,1.06-.88,2-2.7,2A4.52,4.52,0,0,1,173.68,247.1Z"/><path class="cls-4" d="M146.77,252.13h1v3.45h2.14v.8h-3.12Z"/><path class="cls-4" d="M150.26,252.13a.54.54,0,0,1,.59-.53.53.53,0,0,1,.59.51.59.59,0,0,1-1.18,0Zm.11,1h.95v3.26h-.95Z"/><path class="cls-4" d="M155.45,253.12l-1.38,3.26h-1l-1.37-3.26h1l.91,2.22.93-2.22Z"/><path class="cls-4" d="M158.93,255h-2.48a.88.88,0,0,0,.94.65,1.1,1.1,0,0,0,.82-.31l.5.54a1.68,1.68,0,0,1-1.34.53,1.7,1.7,0,0,1-1.87-1.68,1.66,1.66,0,0,1,1.74-1.68,1.61,1.61,0,0,1,1.7,1.69C158.94,254.83,158.93,254.94,158.93,255Zm-2.49-.56h1.61a.77.77,0,0,0-.8-.68A.78.78,0,0,0,156.44,254.46Z"/><path class="cls-9" d="M161.68,256.08l.32-.68a2.19,2.19,0,0,0,1.13.31c.44,0,.6-.11.6-.29,0-.54-2,0-2-1.3,0-.62.56-1.05,1.51-1.05a2.72,2.72,0,0,1,1.26.28l-.32.68a1.8,1.8,0,0,0-.94-.25c-.42,0-.61.14-.61.31,0,.56,2,0,2,1.3,0,.61-.57,1-1.54,1A2.8,2.8,0,0,1,161.68,256.08Z"/><path class="cls-9" d="M167.33,256.22a1.34,1.34,0,0,1-.77.21,1.07,1.07,0,0,1-1.22-1.17v-1.34h-.51v-.73h.51v-.8h.95v.8h.81v.73h-.81v1.33a.38.38,0,0,0,.4.43.62.62,0,0,0,.38-.12Z"/><path class="cls-9" d="M169.89,253.07v.87h-.21a.8.8,0,0,0-.87.91v1.54h-.94v-3.26h.9v.43A1.3,1.3,0,0,1,169.89,253.07Z"/><path class="cls-9" d="M173.61,255h-2.47a.88.88,0,0,0,.94.65,1.13,1.13,0,0,0,.82-.31l.5.54a1.9,1.9,0,0,1-3.21-1.15,1.66,1.66,0,0,1,1.74-1.68,1.61,1.61,0,0,1,1.7,1.69A2.46,2.46,0,0,1,173.61,255Zm-2.48-.56h1.61a.78.78,0,0,0-.8-.68A.76.76,0,0,0,171.13,254.46Z"/><path class="cls-9" d="M177.06,254.52v1.86h-.88V256a1.1,1.1,0,0,1-1,.45c-.76,0-1.22-.42-1.22-1s.41-1,1.4-1h.76c0-.4-.25-.64-.76-.64a1.64,1.64,0,0,0-.94.3l-.34-.66a2.56,2.56,0,0,1,1.41-.39C176.49,253.07,177.06,253.53,177.06,254.52Zm-.94.83V255h-.65c-.45,0-.59.16-.59.38s.2.39.54.39A.7.7,0,0,0,176.12,255.35Z"/><path class="cls-9" d="M183.44,254.51v1.87h-.95v-1.72c0-.53-.23-.77-.62-.77s-.72.27-.72.85v1.64h-1v-1.72c0-.53-.22-.77-.62-.77s-.71.27-.71.85v1.64h-1v-3.26h.91v.37a1.3,1.3,0,0,1,1-.42,1.22,1.22,0,0,1,1.08.53,1.47,1.47,0,0,1,1.18-.53A1.26,1.26,0,0,1,183.44,254.51Z"/><path class="cls-5" d="M160.7,258.45H143.94v-8.32H160.7Zm-16.21-.56h15.66v-7.21H144.49Z"/><rect class="cls-7" x="192.3" y="253.06" width="179.51" height="12.51"/><path class="cls-4" d="M357.82,257.91c0,.16-33.51.29-74.85.29s-74.87-.13-74.87-.29,33.52-.29,74.87-.29S357.82,257.75,357.82,257.91Z"/><path class="cls-4" d="M357.6,260.62c0,.16-33.52.29-74.86.29s-74.86-.13-74.86-.29,33.51-.29,74.86-.29S357.6,260.46,357.6,260.62Z"/><path class="cls-11" d="M310.57,153.53S305.82,167,304.51,169a50.83,50.83,0,0,1-3.81,4.84l5.41,5.15,3.6-4,4.16-3s6.68-8,6.92-8.83-1.19-2.49-3.33-1-4,4.4-4.63,3.62.35-8.37.35-8.37,1.78-3.92,1.19-5.23H313s0-1.3-.72-.95-.71,1.43-.71,1.43A1.11,1.11,0,0,0,310.57,153.53Z"/><path class="cls-11" d="M226.6,141.34a3.08,3.08,0,0,0-2.75,3.14h0l1.84,37.78c.08,4.93,7.28,7.7,12.56,7.57h0c5.34-1.25,6.33-4.25,6.11-8.93-.1-2.23-.43-5.3-.43-5.26s6.73-1.13,8.11-9.92c.68-4.38.45-11.54.07-17.4-.35-5.27-3.86-11.73-9.11-11.17Z"/><path class="cls-8" d="M249.18,154a1.12,1.12,0,0,1-1.08,1.14,1.07,1.07,0,0,1-1.17-1A1.12,1.12,0,0,1,248,153,1.07,1.07,0,0,1,249.18,154Z"/><path class="cls-8" d="M250.56,152.37c-.14.14-1-.49-2.21-.48s-2.1.61-2.23.46.08-.33.46-.61a3,3,0,0,1,1.79-.55,2.92,2.92,0,0,1,1.76.56C250.5,152,250.63,152.3,250.56,152.37Z"/><path class="cls-8" d="M237.43,154.16a1.11,1.11,0,0,1-1.08,1.14,1.07,1.07,0,0,1-1.16-1,1.11,1.11,0,0,1,1.08-1.14A1.07,1.07,0,0,1,237.43,154.16Z"/><path class="cls-8" d="M238.53,152.37c-.14.14-1-.49-2.21-.48s-2.1.61-2.23.47.07-.34.46-.62a3,3,0,0,1,1.79-.55,2.94,2.94,0,0,1,1.76.56C238.47,152,238.6,152.3,238.53,152.37Z"/><path class="cls-8" d="M243.06,161.29a8,8,0,0,1,2-.36c.31,0,.6-.09.65-.3a1.6,1.6,0,0,0-.21-.92l-.92-2.36a41,41,0,0,1-2.07-6.16,39.86,39.86,0,0,1,2.56,6l.89,2.37a1.83,1.83,0,0,1,.16,1.22.76.76,0,0,1-.51.45,2.13,2.13,0,0,1-.52.07A7.88,7.88,0,0,1,243.06,161.29Z"/><path class="cls-12" d="M243.93,175.64a22.33,22.33,0,0,1-11.78-3.11s3.2,6.18,12,5.34Z"/><path class="cls-12" d="M242.86,164.24a3.24,3.24,0,0,0-2.33-1.54,1.37,1.37,0,0,0-1.36.76,2.2,2.2,0,0,0,.19,2,1.88,1.88,0,0,0,1.84.89,3.2,3.2,0,0,0,1.52-1,1.2,1.2,0,0,0,.31-.44.73.73,0,0,0-.1-.63"/><path class="cls-8" d="M239.49,162.14c.2,0,.2,1.3,1.33,2.23s2.53.79,2.54,1-.31.26-.9.28a3.29,3.29,0,0,1-2.12-.74,2.81,2.81,0,0,1-1-1.87C239.25,162.46,239.4,162.13,239.49,162.14Z"/><path class="cls-8" d="M239.22,149.58c-.15.32-1.34,0-2.78.07s-2.61.31-2.77,0c-.07-.14.16-.43.65-.71a4.64,4.64,0,0,1,2.11-.51,4.47,4.47,0,0,1,2.12.47C239.05,149.15,239.29,149.43,239.22,149.58Z"/><path class="cls-8" d="M250.45,150.36c-.26.28-1.3,0-2.55,0s-2.31.18-2.55-.11c-.1-.14.06-.42.53-.68a4.49,4.49,0,0,1,4.1.11C250.42,150,250.57,150.23,250.45,150.36Z"/><path class="cls-8" d="M241.69,132a2.67,2.67,0,0,0,1-3.33c.37-.52-.07-1.29-.67-1.51a3.17,3.17,0,0,0-1.87.13c.16-.3-.28-.55-.61-.6l-2.33-.37a3.6,3.6,0,0,0,2.43-2.07,5.61,5.61,0,0,0,.34-3.24,1.25,1.25,0,0,0-.41-.84,8.81,8.81,0,0,0-1.63,2.73,2.27,2.27,0,0,0-1.66.83.63.63,0,0,0-1-.25c-.5-1.38-1.43-2.83-2.88-3,.46-.64-.37-1.41-1.07-1.76a4.47,4.47,0,0,0-1.62-.56,1.53,1.53,0,0,0-1.48.67,1,1,0,0,0,.55,1.37,1.58,1.58,0,0,0-.57,1.88,1.59,1.59,0,0,0-1.91-.38,6.05,6.05,0,0,0-3.2-.47,1.47,1.47,0,0,0-.78.27c-.16.14-.27.34-.44.46a1.63,1.63,0,0,1-.87.24,3.29,3.29,0,0,0-1.92.7,1.66,1.66,0,0,0-.53,1.87c-1.6.52-3.19-1.32-4.85-1a3.22,3.22,0,0,0-2.06,2,5.59,5.59,0,0,0,2.59.38,1.09,1.09,0,0,0,1.06.84.65.65,0,0,0,.37,1,5.76,5.76,0,0,0-3.08,0c-1.55.37-3.25,1.18-3.6,2.73a4.93,4.93,0,0,0,0,1.67c.1.84.52,1.93,1.35,1.78.51-.1.77-.64,1-1.08a4.43,4.43,0,0,1,2.7-1.95c.39.39-.34.88-.66,1.32s-.18,1.05-.26,1.59a8.41,8.41,0,0,1-1.09,2.21c-.77,1.61-.36,3.51.06,5.24.11.47.65,1.06.94.67a1.3,1.3,0,0,0-1,1.33,3.79,3.79,0,0,0,.55,1.7c.12.23.27.48.52.54s.66-.28.85-.6l1.58-2.59a4,4,0,0,0,0,1.79,3.37,3.37,0,0,0,2.05,2.63,4.45,4.45,0,0,0,2.36-.18"/><path class="cls-8" d="M224.39,159.33c.34-.14,1.71.42,1.94.12,1.15-1.49,1.77-5.74,2-7.6s-.87-3.93-.7-5.81a7.27,7.27,0,0,1,1.42-4.21,5.5,5.5,0,0,1,2.27-1.45,8.82,8.82,0,0,1,8,1.06c.94.67,1.83,1.56,3,1.67a5.49,5.49,0,0,0,3.16-1.18,3.61,3.61,0,0,1,3.24-.63,3.35,3.35,0,0,1,1,.85A15.29,15.29,0,0,1,252,148a12.07,12.07,0,0,0-.52-6.38,15.53,15.53,0,0,0-12.07-8.94c-10.39-1.69-15.26,4.09-17.11,8.23a22,22,0,0,0-.87,10A25.78,25.78,0,0,0,224.39,159.33Z"/><path class="cls-9" d="M221.6,142.33c.16,0,.58-1.12,1.62-2.78a18.73,18.73,0,0,1,2.05-2.75,12.05,12.05,0,0,1,3.18-2.59,12.61,12.61,0,0,1,3.91-1.28,14.17,14.17,0,0,1,3.39-.11c1.95.17,3.11.62,3.18.46s-.24-.25-.76-.49a9.62,9.62,0,0,0-2.32-.71,12.52,12.52,0,0,0-3.62-.1,12.3,12.3,0,0,0-4.28,1.31,12.06,12.06,0,0,0-3.41,2.88,15.41,15.41,0,0,0-2,3C221.66,141,221.48,142.3,221.6,142.33Z"/><path class="cls-7" d="M231.75,133.31l.62.07a13.55,13.55,0,0,1,1.69.28,12.54,12.54,0,0,1,8.54,6.79,15,15,0,0,1,.65,1.58,3.89,3.89,0,0,0,.22.6.65.65,0,0,0,0-.17,4,4,0,0,0-.11-.45,11.62,11.62,0,0,0-.6-1.63,12.32,12.32,0,0,0-3.49-4.47,12.44,12.44,0,0,0-5.14-2.39,11,11,0,0,0-1.72-.22h-.47Z"/><path class="cls-7" d="M229,134.56a12.34,12.34,0,0,0,1.22.66,28,28,0,0,1,5.44,3.83c.64.56,1,.94,1,.91a1.28,1.28,0,0,0-.23-.29c-.16-.18-.4-.43-.71-.73a21.18,21.18,0,0,0-2.59-2.14,21.83,21.83,0,0,0-2.89-1.71c-.38-.18-.7-.32-.92-.41A1.48,1.48,0,0,0,229,134.56Z"/><path class="cls-7" d="M223.36,139.22a1.17,1.17,0,0,0,0,.35c0,.22.08.54.16.94a16.25,16.25,0,0,0,1,3,16,16,0,0,0,1.53,2.74c.23.32.43.58.58.75s.23.26.24.25a12.31,12.31,0,0,0-.7-1.09,21.72,21.72,0,0,1-1.46-2.73,20.62,20.62,0,0,1-1-2.93C223.49,139.7,223.39,139.22,223.36,139.22Z"/><path class="cls-7" d="M226.26,151.79s-.43-.51-1-1.39a13,13,0,0,1-1-1.6,16.37,16.37,0,0,1-.89-2.1,16.56,16.56,0,0,1-.54-2.22,13.94,13.94,0,0,1-.18-1.86c0-1.07,0-1.73,0-1.73a1.77,1.77,0,0,0-.08.46,10,10,0,0,0-.07,1.27,12.28,12.28,0,0,0,.14,1.89,15.11,15.11,0,0,0,.53,2.25,15.66,15.66,0,0,0,.92,2.13,12.1,12.1,0,0,0,1,1.6,10.8,10.8,0,0,0,.81,1A2.44,2.44,0,0,0,226.26,151.79Z"/><path class="cls-8" d="M206.09,140l.23.05.68.09a6.79,6.79,0,0,0,2.53-.1,3.94,3.94,0,0,0,1.56-.8,2.63,2.63,0,0,0,.9-1.8,2.22,2.22,0,0,0-.2-1.1,1.93,1.93,0,0,0-.8-.85,2.46,2.46,0,0,0-2.37,0,1.24,1.24,0,0,0-.67,1.06,1.19,1.19,0,0,0,.71,1,2.21,2.21,0,0,0,1.15.18,4.69,4.69,0,0,0,1.08-.18,5.61,5.61,0,0,0,3.08-2.08,5.56,5.56,0,0,0,1-2.31,4.68,4.68,0,0,0,.08-.69.93.93,0,0,0,0-.24s0,.33-.15.91a5.78,5.78,0,0,1-1,2.24,5.6,5.6,0,0,1-3,2,5.79,5.79,0,0,1-1,.16,2.08,2.08,0,0,1-1.05-.16,1,1,0,0,1-.59-.81,1,1,0,0,1,.56-.87,2.29,2.29,0,0,1,2.17,0,1.84,1.84,0,0,1,.91,1.76,2.43,2.43,0,0,1-.83,1.68,3.63,3.63,0,0,1-1.48.79A7,7,0,0,1,207,140l-.68,0A.62.62,0,0,0,206.09,140Z"/><path class="cls-8" d="M246.72,121a4.27,4.27,0,0,1,.22.81,2.75,2.75,0,0,1-.6,2.1,3,3,0,0,1-3,.9,1.91,1.91,0,0,1-1.41-1.17,1.2,1.2,0,0,1,.15-.94.8.8,0,0,1,.84-.35,1.16,1.16,0,0,1,.72.65,1.3,1.3,0,0,1,0,1,3.41,3.41,0,0,1-1.19,1.51,6,6,0,0,1-3.09,1.21,6.21,6.21,0,0,1-2.25-.21c-.52-.15-.79-.29-.8-.27a.58.58,0,0,0,.19.11,4.7,4.7,0,0,0,.58.24,5.84,5.84,0,0,0,2.3.27,6,6,0,0,0,3.19-1.2,3.57,3.57,0,0,0,1.27-1.6,1.55,1.55,0,0,0,0-1.12,1.39,1.39,0,0,0-.86-.76,1,1,0,0,0-1.06.44,1.36,1.36,0,0,0-.17,1.11,1.62,1.62,0,0,0,.63.86,2.58,2.58,0,0,0,.92.43,3.13,3.13,0,0,0,3.18-1,2.78,2.78,0,0,0,.57-2.21,2.5,2.5,0,0,0-.19-.6Z"/><path class="cls-11" d="M226.54,158a2.67,2.67,0,0,0-3.9-2.27c-.93.54-1.63,1.61-1.55,3.68.23,5.51,5.71,4.14,5.71,4S226.66,160.31,226.54,158Z"/><path class="cls-12" d="M225,161.41s-.09.07-.25.15a.92.92,0,0,1-.71,0,2.38,2.38,0,0,1-1.19-2.08,3.16,3.16,0,0,1,.21-1.39,1.09,1.09,0,0,1,.69-.76.49.49,0,0,1,.58.24c.08.15,0,.26.08.27s.11-.1.06-.32a.65.65,0,0,0-.23-.34.74.74,0,0,0-.54-.12,1.33,1.33,0,0,0-1,.9,3.23,3.23,0,0,0-.27,1.55,2.51,2.51,0,0,0,1.49,2.32,1.05,1.05,0,0,0,.88-.19C225,161.54,225.05,161.42,225,161.41Z"/><path class="cls-9" d="M255.54,179.5l8.39,4.67c4.45,2.5,15.46,7.22,15.46,7.22l21.34-17.9,6.09,6.18s-17.65,29.52-23.11,30.16-20.07-6.53-20.07-6.53Z"/><path class="cls-9" d="M263.86,199.22c-.56-2.37-8.32-19.72-8.32-19.72l-11.33-.83s1.11,16.91-18.62,0l-2.37,2s-12.68,9.61-13.65,11.42,12.79,32.71,13.35,36.89-4.87,22.75-3.62,24.7h44.6l.65-13.14S264.41,201.59,263.86,199.22Z"/><path class="cls-9" d="M211.8,253.06s-9.67-.6-9.53-13.84,2.41-36.88,2.62-38.32a16.52,16.52,0,0,1,4.68-8.86c1.89-1.14,8.77-3.06,10.86,4.6a52.66,52.66,0,0,1,1.59,15.3l-2,20.44,20-9.91L243.56,233S221,253.06,211.8,253.06Z"/><path class="cls-8" d="M204.89,200.9a2.4,2.4,0,0,1,0,.4c0,.28-.06.67-.09,1.15-.09,1-.21,2.53-.37,4.43-.31,3.84-.76,9.41-1.2,16.29-.22,3.45-.43,7.22-.57,11.27q0,1.51-.09,3.09c0,.52,0,1.05,0,1.58s0,1.06.05,1.6a16.35,16.35,0,0,0,1.47,6.34,10.31,10.31,0,0,0,4.68,4.8,8.07,8.07,0,0,0,3.33.92,12.21,12.21,0,0,0,3.5-.79,40,40,0,0,0,6.72-3.33c2.19-1.31,4.35-2.75,6.49-4.27,5.24-3.74,10.12-7.68,14.61-11.59l-.08.3-3.5-10.53.37.15-19.7,9.67-.33.17,0-.37c.55-7.53,1-13.64,1.31-17.91.17-2.09.3-3.72.39-4.87l.12-1.27a2.55,2.55,0,0,1,.06-.43,2.44,2.44,0,0,1,0,.44c0,.31,0,.73-.06,1.27-.06,1.15-.16,2.78-.27,4.87-.27,4.27-.65,10.39-1.13,17.93l-.3-.2,19.65-9.78.28-.13.09.29,3.53,10.52,0,.18-.13.12c-4.51,3.93-9.38,7.88-14.64,11.64-2.15,1.53-4.33,3-6.54,4.29a41.19,41.19,0,0,1-6.82,3.38,12.89,12.89,0,0,1-3.68.8,8.39,8.39,0,0,1-3.59-1,10.84,10.84,0,0,1-4.91-5.06,17,17,0,0,1-1.5-6.55c0-.54,0-1.09,0-1.62s0-1.06,0-1.59c0-1.05.07-2.08.1-3.1.16-4.06.4-7.83.64-11.27.49-6.89,1-12.45,1.39-16.29.2-1.9.36-3.38.47-4.42l.15-1.15A1.76,1.76,0,0,1,204.89,200.9Z"/><path class="cls-8" d="M221.33,202.21c-.1,0,0-1-.45-2.47a9.63,9.63,0,0,0-3.16-4.93,9.75,9.75,0,0,0-5.48-2.09c-1.54-.09-2.49.16-2.51.06a5.16,5.16,0,0,1,2.52-.47,9.16,9.16,0,0,1,9,7.34A5,5,0,0,1,221.33,202.21Z"/><path class="cls-8" d="M257.6,187.05a4.47,4.47,0,0,0-3.15-.71,4.87,4.87,0,0,0-3.15,1.18,4,4,0,0,0-1,2.63,9.62,9.62,0,0,0,.42,2.86,81.15,81.15,0,0,0,3.09,8l4.33-.38a52,52,0,0,0,.86-9.23C259,189.83,258.84,188,257.6,187.05Z"/><path class="cls-8" d="M258.41,209.22h.69a1.35,1.35,0,0,1,1.35,1.35v21.27a1.36,1.36,0,0,1-1.36,1.36h-.69a1.35,1.35,0,0,1-1.35-1.35V210.57a1.35,1.35,0,0,1,1.35-1.35Z" transform="translate(-28.85 39.08) rotate(-8.18)"/><rect class="cls-8" x="246.95" y="200.52" width="14.42" height="11.85" transform="translate(-25.08 35.43) rotate(-7.6)"/><path class="cls-7" d="M258.34,189.34a9.32,9.32,0,0,1-7.84.82c0-.17,1.79.12,3.95-.11S258.27,189.18,258.34,189.34Z"/><path class="cls-7" d="M258.44,192.17a6.19,6.19,0,0,1-3.72,1.34,6.06,6.06,0,0,1-3.89-.68c0-.17,1.74.3,3.84.11S258.36,192,258.44,192.17Z"/><rect class="cls-7" x="250.28" y="200.12" width="14.42" height="11.85" transform="translate(-24.99 35.87) rotate(-7.6)"/><path class="cls-4" d="M259.37,203.9l.48,3.8-1.05.14-1.67-1.55.22,1.73-1.25.16-.49-3.81,1.06-.13,1.67,1.54-.22-1.73Z"/><path class="cls-11" d="M240.72,223.53l6-5.53,4.24-4.53s8.19-2.2,9.62-1.31c1,.63.53,2.19.53,2.19s1.59-.47,2.05.58a2,2,0,0,1-.7,2.76l-3.29,1.2s3.3-.26,4.1.23a1.53,1.53,0,0,1,.06,2.36l-2.72,1.06s2.5-.4,2.88.29.54,1.94-.42,2.46-4.43,2.07-4.43,2.07-7.68,3.16-8.77,3.45-6.12,2.11-6.12,2.11Z"/><path class="cls-12" d="M261.2,222.47c0,.15-.88.51-2,.78s-2.14.39-2.17.23.87-.51,2-.79S261.16,222.31,261.2,222.47Z"/><path class="cls-12" d="M261,214.35a5.1,5.1,0,0,1-2.45.82,5.18,5.18,0,0,1-2.57.09,6.91,6.91,0,0,1,2.47-.65A7.08,7.08,0,0,1,261,214.35Z"/><path class="cls-12" d="M259.73,218.85c0,.15-.55.41-1.32.58s-1.41.17-1.44,0,.57-.42,1.32-.58S259.69,218.69,259.73,218.85Z"/><path class="cls-7" d="M43.79,374.94H454a27.5,27.5,0,0,1,27.5,27.5v78.33a0,0,0,0,1,0,0H13.12a0,0,0,0,1,0,0V405.61A30.67,30.67,0,0,1,43.79,374.94Z"/><rect class="cls-7" x="0.29" y="401.4" width="490.35" height="79.37" rx="6.24"/><path class="cls-8" d="M484.41,480.77a6.7,6.7,0,0,0,2.79-.7,6.21,6.21,0,0,0,3.31-4.57,20.49,20.49,0,0,0,.07-2.64c0-7.52,0-18.61-.05-32.89,0-7.14,0-15.08,0-23.76,0-2.18,0-4.39,0-6.66a14.64,14.64,0,0,0-.19-3.38,6,6,0,0,0-1.69-2.92,6.09,6.09,0,0,0-3-1.59,26.76,26.76,0,0,0-3.6-.11H474.5l-68.91,0-399,.08a6,6,0,0,0-5.49,3.61A6.15,6.15,0,0,0,.62,407a17.56,17.56,0,0,0,0,1.79v46.78q0,7.11,0,14.18v3.52A8.79,8.79,0,0,0,1,476.61,6,6,0,0,0,6,480.46l27.77,0h106l179.4.07,120.94.09,32.88,0,8.55,0,2.92,0-2.92,0-8.55,0-32.88.05L319.12,481l-179.4.06-105.95,0L6,481a6.57,6.57,0,0,1-5.53-4.22A9.17,9.17,0,0,1,0,473.23V408.75c0-.61,0-1.21,0-1.85a7.36,7.36,0,0,1,.49-1.84,6.55,6.55,0,0,1,6-3.95l399,.08,68.91.05H482a26.4,26.4,0,0,1,3.66.13,6.44,6.44,0,0,1,3.19,1.67,6.33,6.33,0,0,1,1.77,3.06,15.51,15.51,0,0,1,.19,3.45c0,2.27,0,4.48,0,6.66,0,8.68,0,16.62,0,23.76,0,14.28,0,25.37-.05,32.89a20.55,20.55,0,0,1-.09,2.65,6.26,6.26,0,0,1-.78,2.18,6.15,6.15,0,0,1-2.6,2.43,6.37,6.37,0,0,1-2.09.62A6.69,6.69,0,0,1,484.41,480.77Z"/><path class="cls-8" d="M323.37,401.12a20.13,20.13,0,0,1-.7-4.76,19.87,19.87,0,0,1-.12-4.81,41.16,41.16,0,0,1,.82,9.57Z"/><path class="cls-8" d="M156.5,382.14a81.61,81.61,0,0,1,.28,9.63,81.61,81.61,0,0,1-.28,9.63,80.22,80.22,0,0,1-.29-9.63A80.22,80.22,0,0,1,156.5,382.14Z"/><path class="cls-8" d="M42.66,480.51c-.16,0-.29-17.45-.29-39s.13-39,.29-39,.29,17.45.29,39S42.82,480.51,42.66,480.51Z"/><path class="cls-8" d="M440.56,480.51c-.16,0-.29-17.45-.29-39s.13-39,.29-39,.29,17.45.29,39S440.72,480.51,440.56,480.51Z"/><path class="cls-8" d="M175.22,365.6s3.92-4.14,7.19-5.75,23-4.31,23-4.31H239s20.81,4.11,24.3,8.21,10.27,16.43,10.27,16.43l-75.89,5.74Z"/><path class="cls-13" d="M204,340.43a26.18,26.18,0,0,1,.69,16.27c4.82,3,10.67,4.14,16.37,4A76,76,0,0,0,237.94,358q-1.17-10.49-2.36-21"/><path class="cls-13" d="M196.2,321.85a2.11,2.11,0,0,0-2.5-.87,3,3,0,0,0-1.81,2.09,5.39,5.39,0,0,0,.12,2.84,18.12,18.12,0,0,0,2.25,4.51,4.79,4.79,0,0,0,2,2.1c.91.38,2.21,0,2.33-1"/><path class="cls-13" d="M241.87,334.24a1.25,1.25,0,0,0,1.84.28,3.56,3.56,0,0,0,1.07-1.8l2.5-7.12a6.59,6.59,0,0,0,.55-2.79,2.27,2.27,0,0,0-1.65-2.09c-1.26-.23-2.29,1-2.89,2.09a18.08,18.08,0,0,0-1.94,11.2"/><path class="cls-8" d="M209.72,286.1a25.57,25.57,0,0,0-16.61,32.74l2.14-3.19a34.08,34.08,0,0,0,4.68,21.4c1.92,3.15,4.48,6.08,7.87,7.55s7.17,1.34,10.84,1.18q6-.27,12-.6a12.27,12.27,0,0,0,5.35-1.13,10.76,10.76,0,0,0,3.88-4.62,43.45,43.45,0,0,0,5-20.72l.61,2a6.7,6.7,0,0,0,2.13-4.77c.09.61.19,1.22.29,1.83a25.87,25.87,0,0,0-31.14-35.11,14.09,14.09,0,0,0-6.6,3.82"/><path class="cls-7" d="M202.08,320.43a8.68,8.68,0,0,1-2.38-3.88,8.57,8.57,0,0,1-.64-4.51c.17,0,.33,2,1.18,4.32S202.22,320.33,202.08,320.43Z"/><path class="cls-7" d="M206.63,319.57a8.71,8.71,0,0,1-3.69-6.27c.16,0,.64,1.53,1.65,3.25S206.74,319.45,206.63,319.57Z"/><path class="cls-7" d="M237.13,310.6a10.48,10.48,0,0,1-3.44,9.87,25.09,25.09,0,0,0,2.49-4.67C237.17,313,237,310.6,237.13,310.6Z"/><path class="cls-7" d="M240.64,310.19a10,10,0,0,1-.09,4.92,9.86,9.86,0,0,1-1.92,4.53c-.16-.07.82-2,1.36-4.65S240.46,310.2,240.64,310.19Z"/><path class="cls-7" d="M244.9,308.76a10.09,10.09,0,0,1-1.07,8.66c-.16-.08.66-1.89.95-4.28S244.73,308.79,244.9,308.76Z"/><path class="cls-7" d="M211.5,320.86A7.6,7.6,0,0,1,209,318.4a7.73,7.73,0,0,1-1.64-3.08,17,17,0,0,1,2.1,2.74A17.39,17.39,0,0,1,211.5,320.86Z"/><path class="cls-7" d="M214.78,319.84a8.13,8.13,0,0,1-3.9-4.73,19.43,19.43,0,0,1,1.93,2.38C213.87,318.78,214.89,319.7,214.78,319.84Z"/><path class="cls-7" d="M212.33,330.3c-.1.12-1.05-.56-1.82-1.74a3.88,3.88,0,0,1-.88-2.35c.16-.06.63.93,1.36,2S212.44,330.18,212.33,330.3Z"/><path class="cls-7" d="M215.19,330.11a4.83,4.83,0,0,1-2.55-1.87,4.72,4.72,0,0,1-1.33-2.87c.15-.06.71,1.21,1.78,2.5S215.28,330,215.19,330.11Z"/><path class="cls-7" d="M229.82,327a8.69,8.69,0,0,1-1.07,3,8.89,8.89,0,0,1-1.59,2.76,9.23,9.23,0,0,1,1.07-3A9.37,9.37,0,0,1,229.82,327Z"/><path class="cls-7" d="M232.66,328.26a9,9,0,0,1-.85,3.08,9.13,9.13,0,0,1-1.4,2.88,9.08,9.08,0,0,1,.86-3.08A9,9,0,0,1,232.66,328.26Z"/><path class="cls-9" d="M79.93,325.07s-15.39-1.43-22.19,1.35-7.52,3.59-11,7.64-5.47,11.66-6.2,16.26S38.92,375,38.92,375l100.34,2.41,13.45-33L141.35,339a48.15,48.15,0,0,0-18.2-4.65l-8.44-.46Z"/><g class="cls-14"><path d="M79.93,325.07s-15.39-1.43-22.19,1.35-7.52,3.59-11,7.64-5.47,11.66-6.2,16.26S38.92,375,38.92,375l102.26,2.61,11.53-33.23L141.35,339a48.15,48.15,0,0,0-18.2-4.65l-8.44-.46Z"/></g><path class="cls-9" d="M152.71,344.38l40.57,17.08,19.8,4.59s10.4,8.42,8.17,12.63S209.37,391.8,202.69,392s-72.95-17.1-72.95-17.1l21.9-31.07"/><g class="cls-14"><path d="M213.08,366.05l-19.8-4.59-40.57-17.08-1.07-.51-21.9,31.07S196,392.29,202.69,392s16.33-9.16,18.56-13.36S213.08,366.05,213.08,366.05Z"/></g><path class="cls-8" d="M58.23,375.51a4.58,4.58,0,0,1-.35-1.13c-.19-.74-.44-1.81-.73-3.13-.58-2.66-1.31-6.34-2-10.42s-1.32-7.79-1.7-10.48c-.19-1.34-.32-2.43-.4-3.19A4.4,4.4,0,0,1,53,346a4.36,4.36,0,0,1,.28,1.15c.16.87.36,1.92.59,3.16.5,2.81,1.14,6.43,1.85,10.44s1.37,7.63,1.88,10.44c.21,1.23.4,2.29.55,3.16A4.68,4.68,0,0,1,58.23,375.51Z"/><path class="cls-8" d="M134.27,370.73a4.08,4.08,0,0,1-.6-1.07,20.44,20.44,0,0,1-1.18-3.15,24.5,24.5,0,0,1,3.68-21.19,21.34,21.34,0,0,1,2.16-2.57,4.75,4.75,0,0,1,.93-.81c.08.07-1.19,1.29-2.76,3.61a25.77,25.77,0,0,0-3.62,20.85C133.57,369.12,134.36,370.69,134.27,370.73Z"/><path class="cls-3" d="M55.6,363a60.32,60.32,0,0,1-8.33.69,59.58,59.58,0,0,1-8.35.12,60.07,60.07,0,0,1,8.32-.69A61.64,61.64,0,0,1,55.6,363Z"/><path class="cls-3" d="M131.4,355.08c0,.16-17.25.06-38.51-.22s-38.52-.64-38.51-.8,17.24-.06,38.51.22S131.4,354.92,131.4,355.08Z"/><path class="cls-3" d="M143.16,377.24a6.1,6.1,0,0,1,.63-1.18c.42-.74,1-1.81,1.71-3.17a81.55,81.55,0,0,0,4.57-11,89.18,89.18,0,0,0,3.06-11.49c.29-1.5.48-2.71.61-3.56a5.5,5.5,0,0,1,.25-1.3,6.41,6.41,0,0,1,0,1.33c-.06.85-.19,2.09-.43,3.6a72.87,72.87,0,0,1-2.91,11.6,67.48,67.48,0,0,1-4.76,11,32.3,32.3,0,0,1-1.89,3.1A5.79,5.79,0,0,1,143.16,377.24Z"/><path class="cls-3" d="M160.87,382.88a5.85,5.85,0,0,1,.7-1.09l.74-1.33c.27-.55.55-1.16.87-1.82a82.44,82.44,0,0,0,3.78-11,68.61,68.61,0,0,0,2.19-11.45c0-.74.09-1.41.09-2s0-1.06-.06-1.51a5.81,5.81,0,0,1-.15-1.3,5.79,5.79,0,0,1,.38,1.27c.06.41.09.93.15,1.53s0,1.28,0,2a59.34,59.34,0,0,1-2,11.57,68,68,0,0,1-4,11.06c-.34.67-.67,1.27-1,1.8s-.58.9-.83,1.29A5.29,5.29,0,0,1,160.87,382.88Z"/><path class="cls-3" d="M137.19,375.51a4,4,0,0,1-.81.08l-2.33.13c-1,.06-2.24.11-3.68.12s-3.07.07-4.88.05c-7.23,0-17.21-.46-28.21-1.28s-20.94-1.67-28.15-2.13c-3.6-.25-6.52-.42-8.54-.53l-2.32-.14a4.38,4.38,0,0,1-.81-.09,7.21,7.21,0,0,1,.81,0l2.33,0c2,0,4.94.15,8.55.34,7.22.36,17.18,1.14,28.17,2s21,1.34,28.18,1.44c1.8,0,3.43,0,4.87,0s2.67,0,3.68,0l2.32,0A4.29,4.29,0,0,1,137.19,375.51Z"/><path class="cls-3" d="M53,346.65c-.1.14-2.13-1.28-4.87-2.55S43,342.14,43,342a14.35,14.35,0,0,1,5.32,1.6A14.21,14.21,0,0,1,53,346.65Z"/><path class="cls-3" d="M134.72,341.13a4.19,4.19,0,0,1-.85,0l-2.42-.22c-2.1-.21-5.14-.55-8.88-1-7.5-.87-17.85-2.21-29.24-3.89s-21.68-3.42-29.11-4.76c-3.72-.66-6.72-1.23-8.79-1.64l-2.38-.48a4.91,4.91,0,0,1-.83-.21,5.2,5.2,0,0,1,.85.1l2.4.37,8.81,1.46c7.45,1.24,17.74,2.9,29.13,4.59s21.72,3.08,29.21,4.06l8.86,1.16,2.41.34A4.66,4.66,0,0,1,134.72,341.13Z"/><path class="cls-13" d="M139.3,310a7.82,7.82,0,0,0,6.32-1.67,15.35,15.35,0,0,0,4.07-5.32,5.48,5.48,0,0,0,.68-2,2.15,2.15,0,0,0-.76-1.92,2.19,2.19,0,0,0-2.11-.12,6.4,6.4,0,0,0-1.78,1.28c-2.46,2.25-5,4.62-6.21,7.73"/><polygon class="cls-13" points="118.56 334.06 129.74 312.34 108.65 303.41 90.35 326.93 114.71 333.85 118.56 334.06"/><path class="cls-8" d="M134,254.5a25.94,25.94,0,0,0-19.17.43,39.21,39.21,0,0,0-15.4,11.88c-3.37,4.13-6.16,8.89-7.11,14.13-1.25,6.95.81,14,2.85,20.79,1.43,4.78,3.17,10,7.37,12.65,2.32,1.49,5.12,2,7.84,2.5,7,1.27,14.58,2.48,21.05-.54,4.77-2.22,8.26-6.43,11.59-10.52,4.13-5.08,8.32-10.27,10.76-16.35A32.8,32.8,0,0,0,155.52,271a22.83,22.83,0,0,0-6.63-12.62c-3.59-3.24-8.82-4.87-13.44-3.45"/><path class="cls-7" d="M121.82,294.18a2.78,2.78,0,0,1-.32.88c-.24.55-.63,1.33-1.14,2.27a46.36,46.36,0,0,1-4.72,6.95,45.7,45.7,0,0,1-5.91,6c-.83.69-1.52,1.22-2,1.56a3.18,3.18,0,0,1-.8.48,31,31,0,0,1,2.54-2.35,61,61,0,0,0,5.73-6,59.49,59.49,0,0,0,4.81-6.78A34.5,34.5,0,0,1,121.82,294.18Z"/><path class="cls-7" d="M124.67,307.31a8.91,8.91,0,0,1-2.12,1.46,33.26,33.26,0,0,1-5.65,2.54,32.88,32.88,0,0,1-6,1.43,8.94,8.94,0,0,1-2.56.14c0-.18,3.87-.56,8.41-2.12S124.58,307.16,124.67,307.31Z"/><path class="cls-7" d="M103.22,290.36a22.41,22.41,0,0,1-.3,3.14,71.64,71.64,0,0,0-.08,15.12,20.9,20.9,0,0,1,.27,3.14,14.13,14.13,0,0,1-.67-3.09,50.28,50.28,0,0,1,.08-15.23A14.31,14.31,0,0,1,103.22,290.36Z"/><path class="cls-7" d="M139.31,281.94a20.75,20.75,0,0,0,3.51-3.3,14.67,14.67,0,0,0,2.44-4.57A13.27,13.27,0,0,0,143.49,262a14.59,14.59,0,0,0-3.65-3.67,20,20,0,0,0-4.31-2.15,4.55,4.55,0,0,1,1.29.27,12.46,12.46,0,0,1,3.25,1.54,14.62,14.62,0,0,1,3.86,3.7,13.51,13.51,0,0,1,1.84,12.57,14.52,14.52,0,0,1-2.63,4.65,12.76,12.76,0,0,1-2.67,2.41A5.22,5.22,0,0,1,139.31,281.94Z"/><path class="cls-7" d="M125.44,292a8.09,8.09,0,0,1,1-1.23c.73-.84,1.66-1.93,2.77-3.23a49.06,49.06,0,0,0,7.72-11.6,23.11,23.11,0,0,0,1.77-13.58,22.62,22.62,0,0,0-2-5.41,1.34,1.34,0,0,1,.25.32,9.7,9.7,0,0,1,.62,1,14.77,14.77,0,0,1,1.51,4,22.62,22.62,0,0,1-1.64,13.89,45.65,45.65,0,0,1-7.94,11.64c-1.2,1.34-2.21,2.4-2.92,3.12A7.79,7.79,0,0,1,125.44,292Z"/><path class="cls-9" d="M100.71,310.71a3.35,3.35,0,0,0-2.77,2.41,2.43,2.43,0,0,0,1.3,2.68c1.68.77,3.85-.57,5.45.36,1.28.74,1.55,2.57,2.78,3.37a2.72,2.72,0,0,0,3.39-.59,3.77,3.77,0,0,0,.63-3.54,6.21,6.21,0,0,0-2.18-3,8.85,8.85,0,0,0-9.75-1.31"/><path class="cls-8" d="M109.18,345.08c2.51-3.35,4.31-7.7,3-11.68-1-3.09-3.72-5.51-4.27-8.71-.46-2.66.66-5.52-.3-8a5.28,5.28,0,0,0-4.44-3.3,5.21,5.21,0,0,0-3.52,1.1l0,0c-5,4-10.52,7.94-15.51,11.91-2.33,1.85-4.74,3.81-5.89,6.54-1.83,4.32,0,9.23,1.74,13.56a14.1,14.1,0,0,0,1.32-7.12c1,2.49.38,5.35-.49,7.9s-2,5.17-1.7,7.85c.49,5,5.47,8.93,5.2,13.94a24.34,24.34,0,0,1-1.26,5,6.23,6.23,0,0,0,.34,5A5.08,5.08,0,0,0,87.6,381a15,15,0,0,0,4.71-.85,7.9,7.9,0,0,1,.77-4.94,12.49,12.49,0,0,1,2.22,9.05c5.67-1.52,10.08-6.39,12-11.95s1.46-11.69-.19-17.32a11.36,11.36,0,0,1-.78-4.79C106.57,348.26,108,346.68,109.18,345.08Z"/><path class="cls-7" d="M94,364.27a19.49,19.49,0,0,1,.66-2,42.81,42.81,0,0,0,1.53-5.4,23.56,23.56,0,0,0,.36-8.23c-.43-3.08-1.76-6.31-2.4-9.94a15.44,15.44,0,0,1,0-5.38,19.46,19.46,0,0,1,1.55-4.75,66.89,66.89,0,0,1,4.2-7.26,45.38,45.38,0,0,0,2.75-4.9c.55-1.2.8-1.9.84-1.88a1.76,1.76,0,0,1-.12.52c-.1.34-.27.83-.52,1.45a37.33,37.33,0,0,1-2.6,5,76.23,76.23,0,0,0-4.07,7.27,19.91,19.91,0,0,0-1.48,4.63,15.29,15.29,0,0,0,0,5.18c.62,3.54,1.94,6.8,2.35,10a23,23,0,0,1-.48,8.39,36.52,36.52,0,0,1-1.72,5.39c-.25.62-.46,1.09-.61,1.41S94,364.28,94,364.27Z"/><path class="cls-7" d="M99,373.28c-.05,0,.37-.76,1-2.17A30.9,30.9,0,0,0,102,365a30.33,30.33,0,0,0,.47-9.49,34,34,0,0,0-1.1-5.53,26.85,26.85,0,0,1-1.18-6,9.59,9.59,0,0,1,.38-3.16,16.76,16.76,0,0,1,1.25-2.78,13.71,13.71,0,0,0,1.14-2.6,7.06,7.06,0,0,0,.21-2.66c-.17-1.76-.74-3.4-1-5a12.38,12.38,0,0,1,.11-4.53,24.77,24.77,0,0,1,2.29-6.1c.35-.68.64-1.2.84-1.55a2.32,2.32,0,0,1,.33-.53,2.27,2.27,0,0,1-.23.58c-.2.42-.44.95-.74,1.6a26.64,26.64,0,0,0-2.09,6.07,12.1,12.1,0,0,0,0,4.38c.26,1.57.85,3.2,1.05,5.05a7.54,7.54,0,0,1-.21,2.86,14.13,14.13,0,0,1-1.17,2.71,15.77,15.77,0,0,0-1.2,2.69,8.91,8.91,0,0,0-.35,3,27,27,0,0,0,1.14,5.91,33.4,33.4,0,0,1,1.09,5.61,30.3,30.3,0,0,1-.6,9.64,28.81,28.81,0,0,1-2.13,6.15c-.34.69-.63,1.21-.84,1.56A1.92,1.92,0,0,1,99,373.28Z"/><path class="cls-8" d="M108.86,370.62s.48-.64,1.11-1.9a11.74,11.74,0,0,0,.38-9.75,29.13,29.13,0,0,1-1.58-4.55,8.51,8.51,0,0,1,.79-5.3c.76-1.71,1.86-3.28,2.75-5a9.41,9.41,0,0,0,1.36-5.26,11.21,11.21,0,0,0-1.82-4.78c-.88-1.42-1.82-2.72-2.61-4a14.44,14.44,0,0,1-1.73-3.84,16.54,16.54,0,0,1-.2-6.06c.09-.71.18-1.26.25-1.63a1.91,1.91,0,0,1,.13-.56,2.33,2.33,0,0,1,0,.58c0,.44-.08,1-.13,1.63a17.2,17.2,0,0,0,.36,5.93,14.53,14.53,0,0,0,1.75,3.7c.79,1.26,1.74,2.54,2.65,4a11.7,11.7,0,0,1,1.93,5,9.94,9.94,0,0,1-1.41,5.58c-.91,1.74-2,3.3-2.74,4.94a7.91,7.91,0,0,0-.79,5,29.94,29.94,0,0,0,1.51,4.49,12,12,0,0,1,.82,4.13,11.75,11.75,0,0,1-1.45,5.88,10.93,10.93,0,0,1-.91,1.38C109,370.49,108.88,370.63,108.86,370.62Z"/><path class="cls-8" d="M81.44,337.06a5.66,5.66,0,0,1-.13-1.26c0-.82-.09-2,0-3.46a20.56,20.56,0,0,1,.79-5.09,11.12,11.12,0,0,1,3.41-5.32,19.12,19.12,0,0,1,5.5-3.08c1.8-.72,3.42-1.3,4.73-1.9a27.1,27.1,0,0,0,4.06-2.3,4.23,4.23,0,0,1-.92.87,17,17,0,0,1-3,1.8c-1.32.65-2.94,1.28-4.7,2a19.56,19.56,0,0,0-5.34,3,10.83,10.83,0,0,0-3.27,5,22.36,22.36,0,0,0-.9,5C81.49,335.25,81.55,337.06,81.44,337.06Z"/><path class="cls-8" d="M153.2,268.34s.12.13.29.42.41.7.7,1.26a26.1,26.1,0,0,1,1.88,5,28,28,0,0,1,.94,7.84,28.05,28.05,0,0,1-7,17.72,35.16,35.16,0,0,1-5.91,5.23c-1.82,1.31-3.35,2.27-4.42,2.93a13.33,13.33,0,0,1-1.69,1,13.52,13.52,0,0,1,1.57-1.15c1-.72,2.52-1.73,4.3-3.07a37.31,37.31,0,0,0,5.75-5.25,28,28,0,0,0,6-25.11,30.4,30.4,0,0,0-1.68-5C153.49,269,153.16,268.37,153.2,268.34Z"/><path class="cls-8" d="M99,309.08c-.06,0-.33-.86-1-2.37s-1.66-3.65-3-6.26A59.63,59.63,0,0,1,90.66,291a21.91,21.91,0,0,1-1.06-6.07,20.19,20.19,0,0,1,1-6.55,28.51,28.51,0,0,1,6.64-10.81,49.25,49.25,0,0,1,8-6.58c2.45-1.64,4.52-2.84,5.94-3.67l1.65-.93a2.86,2.86,0,0,1,.6-.28,2.84,2.84,0,0,1-.54.38l-1.59,1c-1.39.88-3.42,2.13-5.83,3.81A50.8,50.8,0,0,0,97.6,268a28.42,28.42,0,0,0-6.47,10.62,19.59,19.59,0,0,0-1,6.36,21.84,21.84,0,0,0,1,5.92,62.88,62.88,0,0,0,4.14,9.42,67.08,67.08,0,0,1,2.88,6.36c.3.77.48,1.38.6,1.8A3,3,0,0,1,99,309.08Z"/><path class="cls-13" d="M345.12,253.5c-.17.85,5.86,45.93,12,47.19,2.83.59,8.33,1.12,8.33,1.12l3.18,9,34.4-10.28-6.11-21-6.87-31.25Z"/><path class="cls-8" d="M400.14,238.39c-3.24-5.46-8.76-9.82-15.11-10.66-2.12-.28-4.29-.18-6.38-.61s-3.84-1.29-5.78-1.89c-4.68-1.43-9.71-1.14-14.57-.55a25.28,25.28,0,0,0-9.29,2.49,14,14,0,0,0-7.11,11.13A15.37,15.37,0,0,0,345.39,256l.58,1.15c.69,2.52,1.39,5,2.08,7.56a2.68,2.68,0,0,0,.48,1c.43,2.1.85,4.19,1.28,6.29.18.87.44,1.86,1.25,2.24,1.13.53,2.44-.61,2.67-1.83a12.12,12.12,0,0,0-.36-3.67c-.15-1.22.11-2.69,1.22-3.26a1.93,1.93,0,0,1,.34-.11,8.87,8.87,0,0,1,4.83,4.34,18.51,18.51,0,0,1,1.17,3,13.39,13.39,0,0,1,.17,1.79c0,1.54-.21,3.2.6,4.52.7,1.13,3.56,5.32,4.89,5.45h0a38.79,38.79,0,0,0,9.24,6.51,29.65,29.65,0,0,0,8.49,3.39,11.7,11.7,0,0,0,8.82-1.54c2.29-1.61,3.66-4.18,4.82-6.72a69.14,69.14,0,0,0,6.67-29.49C404.56,250.31,403.39,243.85,400.14,238.39Z"/><path class="cls-7" d="M373.33,277.72a5.38,5.38,0,0,1-2.59-.64,12.35,12.35,0,0,1-4.87-4.19,23.81,23.81,0,0,1-2.81-5.77,11.42,11.42,0,0,1-.72-2.55,13.36,13.36,0,0,1,1.1,2.4,29.53,29.53,0,0,0,2.9,5.58,13.46,13.46,0,0,0,4.58,4.17C372.34,277.47,373.35,277.62,373.33,277.72Z"/><path class="cls-7" d="M377.9,278a11.2,11.2,0,0,1-5.61-2.35,11.08,11.08,0,0,1-4-4.6,33.42,33.42,0,0,0,4.32,4.14C375.3,277.15,378,277.83,377.9,278Z"/><path class="cls-7" d="M397.94,263.11a16.13,16.13,0,0,1-.06,6.35,15.94,15.94,0,0,1-2,6c-.16-.06.87-2.7,1.42-6.12S397.76,263.12,397.94,263.11Z"/><path class="cls-7" d="M400.21,264.75a12.54,12.54,0,0,1-1.81,9.31c-.16-.08.76-2,1.25-4.59S400,264.76,400.21,264.75Z"/><path class="cls-7" d="M392.14,247.64c-.1,0,.08-1.61,0-4.18a17.64,17.64,0,0,0-3-9.36,11.72,11.72,0,0,0-4.05-3.57,10.37,10.37,0,0,0-4.26-1.12,11.43,11.43,0,0,0-4.05.7,2.85,2.85,0,0,1,1-.55,8.55,8.55,0,0,1,3.06-.56,10.26,10.26,0,0,1,4.49,1.06,11.73,11.73,0,0,1,4.27,3.7,16.91,16.91,0,0,1,2.94,9.68,24.18,24.18,0,0,1-.15,3.08A4.43,4.43,0,0,1,392.14,247.64Z"/><path class="cls-7" d="M391.46,233.4a7.11,7.11,0,0,1-1.55-1.12,20.83,20.83,0,0,0-3.76-2.52,9.14,9.14,0,0,0-4.31-1c-1.15.05-1.83.34-1.87.25a3.21,3.21,0,0,1,1.83-.66,8.3,8.3,0,0,1,4.6.86,15.66,15.66,0,0,1,3.78,2.73C391,232.79,391.51,233.34,391.46,233.4Z"/><path class="cls-7" d="M388.81,255.28a45.76,45.76,0,0,0,.71-4.84,48.11,48.11,0,0,0-.35-4.89,9.11,9.11,0,0,1,.93,4.91A9,9,0,0,1,388.81,255.28Z"/><path class="cls-7" d="M384.4,255.15c-.15-.09.42-1.11.64-2.49s0-2.53.21-2.57a3.38,3.38,0,0,1,.35,2.66A3.45,3.45,0,0,1,384.4,255.15Z"/><path class="cls-7" d="M352.27,255.66a12.62,12.62,0,0,1-8.79-8c.17-.09,1.29,2.46,3.78,4.69S352.34,255.49,352.27,255.66Z"/><path class="cls-7" d="M356,256.79a20.09,20.09,0,0,1-7.66-7.5c.14-.1,1.61,1.8,3.73,3.86S356.1,256.65,356,256.79Z"/><path class="cls-7" d="M362.24,260.09a41.65,41.65,0,0,1-3.8-4,42.15,42.15,0,0,1-3.7-4.09,19.7,19.7,0,0,1,4.12,3.7A19.26,19.26,0,0,1,362.24,260.09Z"/><path class="cls-7" d="M366,263.11c-.16.06-1.15-2.2-2.64-4.83s-2.89-4.67-2.76-4.77a16.65,16.65,0,0,1,3.26,4.48A16.87,16.87,0,0,1,366,263.11Z"/><path class="cls-7" d="M349.09,242.89a6.88,6.88,0,0,1-.21-1.52,20.42,20.42,0,0,1,.09-4.2,11.48,11.48,0,0,1,8.63-10,17.8,17.8,0,0,1,7.63-.52,32,32,0,0,1,6,1.5c1.68.58,3,1.13,3.91,1.52a7.41,7.41,0,0,1,1.38.66,8.18,8.18,0,0,1-1.46-.45c-.94-.32-2.28-.82-3.95-1.34a34,34,0,0,0-6-1.36,17.84,17.84,0,0,0-7.4.54,11.21,11.21,0,0,0-8.39,9.55A46.32,46.32,0,0,0,349.09,242.89Z"/><path class="cls-7" d="M368.08,236.42a2.8,2.8,0,0,1,.32-1.54,7.6,7.6,0,0,1,2.29-3,7.7,7.7,0,0,1,3.45-1.61,3,3,0,0,1,1.57,0c0,.1-.59.15-1.48.41a9,9,0,0,0-5.46,4.42C368.33,235.87,368.17,236.44,368.08,236.42Z"/><path class="cls-13" d="M159.11,382.89l9.79-12,20-6.42,27-1.16,29.12,7.31-7.8,20.87-21.55-7.86s-9.39,5.69-14.28,6-11.07,3.7-11.07,3.7l-1.45,7.41s-3.2,1.63-3.75,0-1.08-8.67-1.08-8.67l4.83-5.39-9.55,7.29-5,7.5s-5.13.09-3.65-3.16,3.93-8.41,3.93-8.41l6.77-7.49-8.05,5.7-5.6,8.92s-5.05.9-4-2.24a68.21,68.21,0,0,1,3.33-8.11l3.91-5.21,5-4.48-5.28,1.26S164.36,388.07,159.11,382.89Z"/><path class="cls-9" d="M221.19,363.47l-2.29,25.86,76.26,10.87a15.58,15.58,0,0,0,7.08-.52l68.36-27.81s5-33.42-16.74-41.64c-14.62-5.54-23.74,13.89-34.4,20.89a114.32,114.32,0,0,1-26,12.35Z"/><path class="cls-9" d="M344,330.23l24.62-19.42,34.4-10.28s25.48,8.12,31.27,11.44c7.61,4.37,17.95,16.84,21.21,35.17a165.7,165.7,0,0,1,2.61,27.8l-93.34,0Z"/><path class="cls-8" d="M365.43,353.41c-.11,0-.29-1.69-1.16-4.29a26.6,26.6,0,0,0-1.92-4.39,30.11,30.11,0,0,0-3.35-4.8,29.75,29.75,0,0,0-4.29-4,28.3,28.3,0,0,0-4.06-2.53c-2.45-1.23-4.11-1.66-4.08-1.78a5.61,5.61,0,0,1,1.18.26,10.31,10.31,0,0,1,1.34.44,15.92,15.92,0,0,1,1.73.71,25.16,25.16,0,0,1,4.21,2.47,26.55,26.55,0,0,1,7.79,9,24.58,24.58,0,0,1,1.84,4.52,17.22,17.22,0,0,1,.46,1.81,10.34,10.34,0,0,1,.23,1.4A4.72,4.72,0,0,1,365.43,353.41Z"/><path class="cls-8" d="M424.23,332a10.21,10.21,0,0,1-.57,1.71c-.4,1.09-1,2.65-1.78,4.57-1.53,3.85-3.73,9.13-6.29,14.91s-5,11-6.81,14.68c-.9,1.87-1.65,3.37-2.18,4.39a13.89,13.89,0,0,1-.88,1.58,9.3,9.3,0,0,1,.67-1.67l2-4.47c1.72-3.76,4.08-9,6.64-14.74s4.82-11,6.45-14.83l1.94-4.5A12.92,12.92,0,0,1,424.23,332Z"/><path class="cls-4" d="M333,387.15c-.12,0,.33-2.26.15-5.89a33.13,33.13,0,0,0-3.71-13.57,31.11,31.11,0,0,0-13.43-14.52s.14,0,.39.13a10.22,10.22,0,0,1,1.08.49,20.42,20.42,0,0,1,3.65,2.37A35.1,35.1,0,0,1,330,367.42a31.71,31.71,0,0,1,3.61,13.82,26.46,26.46,0,0,1-.24,4.35A6.71,6.71,0,0,1,333,387.15Z"/><path class="cls-4" d="M338.5,384.93c-.12,0,.06-2.29-.29-5.93a39.09,39.09,0,0,0-4-13.63,38,38,0,0,0-4.25-6.58,36.46,36.46,0,0,0-4.46-4.59c-2.78-2.38-4.8-3.48-4.73-3.59a9.55,9.55,0,0,1,1.42.76,13.5,13.5,0,0,1,1.58,1,20.74,20.74,0,0,1,2,1.5,33.81,33.81,0,0,1,4.61,4.56A36.38,36.38,0,0,1,338.61,379a32.77,32.77,0,0,1,.05,4.37A8.07,8.07,0,0,1,338.5,384.93Z"/><g class="cls-14"><path d="M423.05,335.12c0,12.06-3.51,22.91-7.58,34.27a8.89,8.89,0,0,1-2.58,4.26c-1.35,1-3.57,1-4.49-.37s-.25-2.94.34-4.34l14.31-33.82"/></g></g></g></svg>